<svg enable-background="new 0 0 467.71 507.123" height="508" viewBox="0 0 467.71 507.123" width="468" xmlns="http://www.w3.org/2000/svg"><path d="m439.686 370.79c33.56 24.87 27.8 62.14 25.18 82.68-1.14 8.97-7.35 22.66-17.28 33.81-11.67-.22-23.14-.42-34.45-.6 11.26-11.43 16.48-26.68 19.77-42.39 3.82-18.29 3.83-41.77-4.12-60.22-6.05-14.1-16.75-25.25-33.93-28.9 18.61 1.34 30.85 5.26 44.83 15.62z" fill="#f6b855"/><path d="m422.576 66.54c.38-.32.76-.64 1.13-.97 5.45 2.33 9.66 6.21 12.55 11.73-2.41.69-4.77 1.65-7.06 2.85-2.53 1.3-4.96 2.89-7.26 4.72-2.46 1.93-4.76 4.13-6.87 6.53-2.22 2.52-4.21 5.26-5.93 8.14-3.41 5.74-5.73 12.05-6.5 18.37 2.65-3.74 6.04-6.97 9.87-9.6 2.07-1.42 4.28-2.66 6.56-3.71 2.16-.99 4.38-1.81 6.64-2.43 2.54-.71 5.11-1.19 7.67-1.41 2.6-.23 5.18-.2 7.69.11 2.72 40.09.11 72.13-2.87 106.06-1.4 15.95-3.96 21.45-7.35 26.32-3.4 4.86-8.98 6.84-13.77 7.73h-.08c-.01-25.13-.29-48.37-.54-53.6.46-18.98-2.93-36.49-16.34-49.93-1.07-1.07-2.18-2.08-3.35-3.04-4.68-3.84-10.09-6.75-15.82-8.88l.06-.17c4.75-12.77 5.37-26.88-5.43-35.18l-.03-.11v-.01c16.39-3.76 31.93-11.23 44.99-21.83.69-.54 1.37-1.11 2.04-1.69z" fill="#bdb89b"/><path d="m440.536 93.78c.2 2.39.37 4.76.53 7.09-2.51-.31-5.09-.34-7.69-.11l-.01-.15c-.59-6.55-1.81-13.99-4.02-20.18l-.15-.28c2.29-1.2 4.65-2.16 7.06-2.85 2.3 4.42 3.74 9.9 4.28 16.48z" fill="#ffe6e8"/><path d="m433.366 100.61.01.15c-2.56.22-5.13.7-7.67 1.41l-.03-.11c-.5-6.13-1.89-11.54-3.6-17.01l-.14-.18c2.3-1.83 4.73-3.42 7.26-4.72l.15.28c2.21 6.19 3.43 13.63 4.02 20.18z" fill="#ffe6e8"/><path d="m264.406 255.36c-1.72 4.33-2.02 9.6-2.12 17.18-.02 1.75-.03 3.61-.05 5.62-.05 21.3-1.41 29.29.52 41.63s6.15 22.59 17.07 28.65c8.4 4.67 18.4 5.17 28.01 5.55 21.03.85 42.04.6 63.08.56 8.36-.02 15.63.1 22.13.5l-.01.12c8.59 1.87 5.18 11.08 2.28 14.03-2.89 2.95-6.94 4.41-10.33 6.78-3.38 2.38-6.26 6.52-4.94 10.43 1.17 3.48 5.19 5.38 6.34 8.87 1.48 4.53-2.59 8.97-6.74 11.32-4.15 2.34-9.09 4.15-11.32 8.36-2.52 4.77-.52 10.52.52 15.82 1.03 5.29.08 12.21-5.06 13.85 6.64.34 13.14-4.73 14.43-11.25.76-3.81-.03-8.05 1.95-11.39 2.63-4.43 8.65-5.08 13.78-5.55 5.13-.48 11.24-2.11 12.69-7.06 1.01-3.47-.82-7.13-.73-10.74.12-4.92 3.86-9.17 8.29-11.35 4.42-2.17 9.44-2.66 14.35-3.12l.24-.1c7.95 18.45 7.94 41.93 4.12 60.22-3.29 15.71-8.51 30.96-19.77 42.39-7.58-.12-15.08-.24-22.52-.34v-.02c-2.52-3.16.64-7.73 4.04-9.91 3.39-2.18 7.68-4.32 8.16-8.33.55-4.7-4.77-9.17-2.93-13.53 1.91-4.53 8.88-3.33 12.85-6.23 6.83-4.98.93-18.1 7.66-23.21-2.82-1.89-6.75.3-8.58 3.16-1.84 2.87-2.59 6.37-4.72 9.03-2.95 3.7-7.89 5.01-12.34 6.64s-9.2 4.39-10.17 9.03c-.72 3.48.88 7.41-.85 10.53-1.29 2.33-4.12 3.41-6.78 3.59-2.66.19-5.32-.34-7.99-.33-10.46.04-19.9 8.5-19.9 18.95v.1c-105-1.19-199.65-.91-311.03.52-6.87-8.01-11.75-17.85-13.53-27.67-3.92-21.63 6.05-45.09 24.17-57.46 11.3 10.28 29.16 16.74 45.55 16.74 11.9 0 23.01-3.31 32.42-9.05l.09-.02c1.34 6.3 8.34 8.32 14.9 7.97 6.7-.37 12.84-3.63 19.1-6.05 26.69-10.33 56.92-5.38 83.95 4.03 27.02 9.4 52.54 23.08 80.15 30.59 5.13 1.39 10.46 2.58 15.73 1.83 5.26-.74 10.49-3.79 12.47-8.72 2.49-6.23-.76-13-5.21-18.29l.05-.04c1.56-1.69 2.54-4.23 2.89-6.57.59-3.97.5-8.43 3.24-11.37 2.59-2.79 6.94-3.23 9.82-5.73 2.91-2.51 3.82-6.63 4.07-10.47s.03-7.8 1.36-11.41c1.26-3.38 4.42-6.41 7.94-6.28.24.01.47.03.71.06-.24-.04-.48-.06-.71-.06-7.18-.56-14.55 3.21-18.26 9.4-1.61 2.68-2.67 5.86-5.22 7.68-3.68 2.63-8.73 1.28-13.25 1.56-8.41.52-15.84 7.89-16.45 16.28-3.58-1.39-7.43-2.49-11.69-3.41-11.44-2.46-26.6-4.18-38.31-4.2-11.71-.01-23.63-.4-34.71-4.15-11.09-3.75-21.4-11.38-25.78-22.23-3.04-7.54-2.66-15.91-2.95-24.03-.47-13.32-.68-26.87-.57-41.12.07-10.49.14-20.97.21-31.46.07-10.66.14-21.33.22-31.99.04-7.61.21-15.59 2.64-22.67.84-2.44 1.95-4.77 3.41-6.94 6.46-9.57 18.41-13.78 29.8-15.66 15.52-2.55 31.35-1.88 47.08-2.14 1.71-.02 3.42-.04 5.1-.06h.55c18.08-.09 38.26.68 51.53.18 4.47-.18 8.48-.48 12.2-1.07.26 1.56.38 3.12.34 4.65-.34 15.25-.16 30.09-.08 44.81h-.26c-14.04-.08-28.27-.27-43.21-.42-6.93-.06-14-.12-21.28-.16-7.56-.04-20.28.1-26.28 4.75-3.88 3-6.19 5.9-7.57 9.4z" fill="#bdb89b"/><path d="m428.786 384.07-.24.1c-4.91.46-9.93.95-14.35 3.12-4.43 2.18-8.17 6.43-8.29 11.35-.09 3.61 1.74 7.27.73 10.74-1.45 4.95-7.56 6.58-12.69 7.06-5.13.47-11.15 1.12-13.78 5.55-1.98 3.34-1.19 7.58-1.95 11.39-1.29 6.52-7.79 11.59-14.43 11.25 5.14-1.64 6.09-8.56 5.06-13.85-1.04-5.3-3.04-11.05-.52-15.82 2.23-4.21 7.17-6.02 11.32-8.36 4.15-2.35 8.22-6.79 6.74-11.32-1.15-3.49-5.17-5.39-6.34-8.87-1.32-3.91 1.56-8.05 4.94-10.43 3.39-2.37 7.44-3.83 10.33-6.78 2.9-2.95 6.31-12.16-2.28-14.03l.01-.12c.61.04 1.21.08 1.81.12 17.18 3.65 27.88 14.8 33.93 28.9z" fill="#62b57f"/><path d="m425.676 102.06.03.11c-2.26.62-4.48 1.44-6.64 2.43l-.06-.14c-.86-4.08-2.38-8.99-3.77-12.91l-.17-.15c2.11-2.4 4.41-4.6 6.87-6.53l.14.18c1.71 5.47 3.1 10.88 3.6 17.01z" fill="#ffe6e8"/><path d="m282.566 37.34c8.11-13.28 20.21-23.91 34.28-30.15 21.54-9.56 47.52-8.41 68.14 3.01 20.61 11.41 35.39 32.04 38.72 55.37-.37.33-.75.65-1.13.97-10.12-30.05-39.2-51.09-70.82-53.49-31.58-2.38-57.34 13.14-76.12 39.05 1.75-5.18 4.08-10.1 6.89-14.71.01-.02.02-.03.04-.05z" fill="#d9978d"/><path d="m395.226 37.98c-8.36-6.22-17.84-10.94-27.84-13.78-5.81-1.65-11.81-2.67-17.86-2.97-7.01-.35-14.03.27-20.86 1.74-11.19 2.41-21.9 7.11-31.3 13.67-9.31 6.49-17.33 14.79-23.25 24.49l-.07.07c-.25-.23-.49-.47-.74-.72.6-2.84 1.37-5.62 2.31-8.33-.01-.02 0-.04.02-.05 18.78-25.91 44.54-41.43 76.12-39.05 31.62 2.4 60.7 23.44 70.82 53.49-.67.58-1.35 1.15-2.04 1.69-5.79-11.97-14.64-22.32-25.31-30.25z" fill="#010101"/><path d="m419.006 104.46.06.14c-2.28 1.05-4.49 2.29-6.56 3.71-.6-2.82-1.8-6.25-3.12-8.62l-.25-.15c1.72-2.88 3.71-5.62 5.93-8.14l.17.15c1.39 3.92 2.91 8.83 3.77 12.91z" fill="#ffe6e8"/><path d="m411.816 428.27c1.83-2.86 5.76-5.05 8.58-3.16-6.73 5.11-.83 18.23-7.66 23.21-3.97 2.9-10.94 1.7-12.85 6.23-1.84 4.36 3.48 8.83 2.93 13.53-.48 4.01-4.77 6.15-8.16 8.33-3.4 2.18-6.56 6.75-4.04 9.91v.02c-14.07-.21-27.9-.39-41.55-.53v-.1c0-10.45 9.44-18.91 19.9-18.95 2.67-.01 5.33.52 7.99.33 2.66-.18 5.49-1.26 6.78-3.59 1.73-3.12.13-7.05.85-10.53.97-4.64 5.72-7.4 10.17-9.03s9.39-2.94 12.34-6.64c2.13-2.66 2.88-6.16 4.72-9.03z" fill="#62b57f"/><path d="m413.136 486.68c11.31.18 22.78.38 34.45.6-9.25 10.37-21.72 18.52-36.35 18.6-19.21.2-38.12.34-56.82.41v-.04c29.03-0 47.1-7.75 58.72-19.57z" fill="#bdb89b"/><path d="m416.996 240.98c.01 31.09-.4 65.06-1.83 71.38-2.58 11.43-9.12 21.58-19.64 26.74-8.46 4.14-22.31 4.96-31.73 4.69-14.71-.43-29.42.15-44.13-.27-5.15-.15-10.49-.34-15.13-2.61-6.73-3.3-10.8-10.48-12.6-17.76-1.8-7.27-1.72-14.86-2.47-22.32-.76-7.46-.18-15.92-4.95-21.7s-13.46-6.87-22.05-6.59h-.18c.1-7.58.4-12.85 2.12-17.18 22.03 0 51.67.29 70.13.38 3.35 8.09 4.2 20.06 4.81 28.79.28 4.11.52 8.37 2.45 12.01s6.05 6.34 10.07 5.45c8.84-1.95 10.07-8.69 10.38-14.51.82-15.34.84-30.46.76-45.69-.08-14.72-.26-29.56.08-44.81.04-1.53-.08-3.09-.34-4.65 9.35-1.48 16.83-4.79 25.05-12.48 11.48-10.75 17.38-30.45 8.9-45.36l.07-.08c1.17.96 2.28 1.97 3.35 3.04 13.41 13.44 16.8 30.95 16.34 49.93.25 5.23.53 28.47.54 53.6z" fill="#bdb89b"/><path d="m409.386 99.69c1.32 2.37 2.52 5.8 3.12 8.62-3.83 2.63-7.22 5.86-9.87 9.6.77-6.32 3.09-12.63 6.5-18.37z" fill="#ffe6e8"/><path d="m396.696 134.49c8.48 14.91 2.58 34.61-8.9 45.36-8.22 7.69-15.7 11-25.05 12.48-.62-3.75-2.04-7.45-4.06-10.54-3.21-4.91-9.06-7.22-15.11-8.18-2.16-.35-4.36-.52-6.46-.57-2.66-.07-5.31-.13-7.95-.19v-.18c.54-3.47 3.26-6.46 6.23-8.64 4.01-2.94 8.82-5.04 11.71-9.09 2.32-3.25 3.07-7.33 3.58-11.29.5-3.95.85-8.02 2.53-11.64 1.68-3.61 5.05-6.76 9.04-6.88-8.38-.61-14.62 5.2-19.52 10.77-4.23 4.82-7.05 10.9-12 14.99-4.92 4.08-11.39 5.73-16.91 8.95-4.62 2.7-8.81 7.44-9.04 12.52v.05c-6.62-.1-13.2-.19-19.77-.27v-.2c-.81-6.6 6.88-9.42 11.63-12.7 5.42-3.75 11.6-6.51 16.32-11.12 5.49-5.35 8.49-12.67 11.98-19.5 1.39-2.75 2.96-5.5 4.79-8.02.94-.02 1.89-.04 2.83-.06 11.94-.27 23.99-.55 35.75 1.58 4.28.78 8.54 1.9 12.63 3.41 5.73 2.13 11.14 5.04 15.82 8.88z" fill="#f6b855"/><path d="m395.226 37.98c.64 4.05.9 8.18.72 12.27h-.06c-3.38-2.98-7.07-5.57-11-7.77-1.71-.96-3.47-1.85-5.27-2.66-1.68-6.9-6.54-12.32-12.7-14.14l.47-1.48c10 2.84 19.48 7.56 27.84 13.78z" fill="#334a5a"/><path d="m371.466 90.92c-3.12.6-6.27 1.06-9.43 1.38l-.12-1.14c1.4-.12 2.8-.32 4.19-.63 11.19-2.49 20.53-11.01 25.39-21.39 2.76-5.91 4.17-12.36 4.45-18.89.18-4.09-.08-8.22-.72-12.27 10.67 7.93 19.52 18.28 25.31 30.25-13.06 10.6-28.6 18.07-44.99 21.83v.01c-1.35.31-2.71.6-4.08.85z" fill="#cde8e3"/><path d="m395.886 50.25h.06c-.28 6.53-1.69 12.98-4.45 18.89-4.86 10.38-14.2 18.9-25.39 21.39-1.39.31-2.79.51-4.19.63-14.81 1.19-29.88-8.3-36.38-21.88-4.5-9.38-5.24-20.14-3.03-30.34 5.99-2.59 12.37-4.25 18.87-5.01-1.61 3.54-2.51 7.55-2.51 11.8 0 14.35 10.34 25.99 23.1 25.99 12.75 0 23.1-11.64 23.1-25.99 0-1.1-.07-2.19-.18-3.25 3.93 2.2 7.62 4.79 11 7.77z" fill="#1e5c9a"/><path d="m354.416 506.25v.04c-95.27.4-185.2-.7-282.71-2v-.13c-12.94-.43-24.92-7.65-33.67-17.83 111.38-1.43 206.03-1.71 311.03-.52 13.65.14 27.48.32 41.55.53 7.44.1 14.94.22 22.52.34-11.62 11.82-29.69 19.57-58.72 19.57z" fill="#8d634b"/><path d="m384.886 42.48c.11 1.06.18 2.15.18 3.25 0 14.35-10.35 25.99-23.1 25.99-12.76 0-23.1-11.64-23.1-25.99 0-4.25.9-8.26 2.51-11.8 2.13-.25 4.28-.41 6.43-.46-2.11 3.31-3.34 7.37-3.34 11.75 0 11.15 8.02 20.2 17.9 20.2 9.89 0 17.91-9.05 17.91-20.2 0-1.87-.23-3.68-.66-5.4 1.8.81 3.56 1.7 5.27 2.66z" fill="#2a9859"/><path d="m329.736 120.6c-10.32.22-20.64.3-30.96.3-7.04 0-14.09-.03-21.14-.08-6.19-.04-12.38-.09-18.57-.15-8.56-.07-17.11-.14-25.66-.16 1.21-2.47 2.43-4.91 3.66-7.32 11.18-21.86 23.41-41.17 38.55-61.04-.94 2.71-1.71 5.49-2.31 8.33.25.25.49.49.74.72 4.51 4.46 9.41 8.49 14.63 12.07l-.05.07c-.45 6.96-.31 11.8-.36 19.13 4.07-4.17 8.41-7.65 12.48-11.82l.06-.13c5.68 2.93 11.61 5.37 17.71 7.28l-.02.05c-.33 6.97-.02 14.79.36 17.97 2.34-2.97 8.52-8.88 12.59-14.62l.03-.16c5.28.99 10.64 1.59 16.02 1.77 1.29.04 2.58.06 3.87.06v.04c.78 5.48 1.93 12.29 3.54 17.8 6.07-7.05 11.77-13.86 16.56-19.79 1.37-.25 2.73-.54 4.08-.85l.03.11c10.8 8.3 10.18 22.41 5.43 35.18l-.06.17c-4.09-1.51-8.35-2.63-12.63-3.41-11.76-2.13-23.81-1.85-35.75-1.58-.94.02-1.89.04-2.83.06z" fill="#f6b855"/><path d="m379.616 39.82c.43 1.72.66 3.53.66 5.4 0 11.15-8.02 20.2-17.91 20.2-9.88 0-17.9-9.05-17.9-20.2 0-4.38 1.23-8.44 3.34-11.75 10.9-.29 21.91 1.88 31.81 6.35z" fill="#010101"/><path d="m377.196 368.36c-3.52-.13-6.68 2.9-7.94 6.28-1.33 3.61-1.11 7.57-1.36 11.41s-1.16 7.96-4.07 10.47c-2.88 2.5-7.23 2.94-9.82 5.73-2.74 2.94-2.65 7.4-3.24 11.37-.35 2.34-1.33 4.88-2.89 6.57l-.05.04c-.74-.87-1.5-1.7-2.28-2.48-6.87-6.87-13.53-11.37-21.53-14.47.61-8.39 8.04-15.76 16.45-16.28 4.52-.28 9.57 1.07 13.25-1.56 2.55-1.82 3.61-5 5.22-7.68 3.71-6.19 11.08-9.96 18.26-9.4z" fill="#62b57f"/><path d="m366.916 25.68c6.16 1.82 11.02 7.24 12.7 14.14-9.9-4.47-20.91-6.64-31.81-6.35 3.25-5.12 8.56-8.45 14.56-8.45 1.57 0 3.1.23 4.55.66z" fill="#ff564f"/><path d="m341.376 33.93c-6.5.76-12.88 2.42-18.87 5.01 1.21-5.6 3.31-11.03 6.16-15.97 6.83-1.47 13.85-2.09 20.86-1.74 6.05.3 12.05 1.32 17.86 2.97l-.47 1.48c-1.45-.43-2.98-.66-4.55-.66-6 0-11.31 3.33-14.56 8.45-2.15.05-4.3.21-6.43.46z" fill="#334a5a"/><path d="m371.466 90.92c-4.79 5.93-10.49 12.74-16.56 19.79-1.61-5.51-2.76-12.32-3.54-17.8v-.04c3.56-.01 7.13-.2 10.67-.57 3.16-.32 6.31-.78 9.43-1.38z" fill="#010101"/><path d="m322.506 38.94c-2.21 10.2-1.47 20.96 3.03 30.34 6.5 13.58 21.57 23.07 36.38 21.88l.12 1.14c-3.54.37-7.11.56-10.67.57-1.29 0-2.58-.02-3.87-.06-5.38-.18-10.74-.78-16.02-1.77-4.38-.81-8.71-1.89-12.96-3.24-6.1-1.91-12.03-4.35-17.71-7.28-2.35-1.2-4.65-2.49-6.9-3.86l.05-.09c-6.37-5.53-8.79-12.85-8.2-20.29.6-7.44 5.67-15.13 11.64-19.6l-.03-.04c9.4-6.56 20.11-11.26 31.3-13.67-2.85 4.94-4.95 10.37-6.16 15.97z" fill="#cde8e3"/><path d="m342.736 135.9c4.9-5.57 11.14-11.38 19.52-10.77-3.99.12-7.36 3.27-9.04 6.88-1.68 3.62-2.03 7.69-2.53 11.64-.51 3.96-1.26 8.04-3.58 11.29-2.89 4.05-7.7 6.15-11.71 9.09-2.97 2.18-5.69 5.17-6.23 8.64v.18c-8.23-.18-16.34-.32-24.38-.44v-.05c.23-5.08 4.42-9.82 9.04-12.52 5.52-3.22 11.99-4.87 16.91-8.95 4.95-4.09 7.77-10.17 12-14.99z" fill="#62b57f"/><path d="m358.686 181.79c2.02 3.09 3.44 6.79 4.06 10.54-3.72.59-7.73.89-12.2 1.07-13.27.5-33.45-.27-51.53-.18 17.31-.15 32.76-.12 37.18-2.78 5.16-3.1 7.52-5.88 7.37-16.75l.01-.08c6.05.96 11.9 3.27 15.11 8.18z" fill="#8d634b"/><path d="m331.476 91.04-.03.16c-4.07 5.74-10.25 11.65-12.59 14.62-.38-3.18-.69-11-.36-17.97l.02-.05c4.25 1.35 8.58 2.43 12.96 3.24z" fill="#010101"/><path d="m319.536 241.47c8.14 3.22 11.65 6.18 15 14.27-18.46-.09-48.1-.38-70.13-.38 1.38-3.5 3.69-6.4 7.57-9.4 6-4.65 18.72-4.79 26.28-4.75 7.28.04 14.35.1 21.28.16z" fill="#8d634b"/><path d="m329.736 120.6c-1.83 2.52-3.4 5.27-4.79 8.02-3.49 6.83-6.49 14.15-11.98 19.5-4.72 4.61-10.9 7.37-16.32 11.12-4.75 3.28-12.44 6.1-11.63 12.7v.2c-5.82-.07-11.63-.14-17.47-.23v-.02c-.99-4.96 2.49-10.12 6.55-13.41 4.42-3.58 9.78-6.16 13.1-10.77 3.5-4.86 4.13-11.15 6.11-16.8 1.27-3.61 3.13-6.99 5.47-10.01 10.32 0 20.64-.08 30.96-.3z" fill="#62b57f"/><path d="m300.806 80.52-.06.13c-4.07 4.17-8.41 7.65-12.48 11.82.05-7.33-.09-12.17.36-19.13l.05-.07c1.71 1.18 3.45 2.31 5.23 3.39 2.25 1.37 4.55 2.66 6.9 3.86z" fill="#010101"/><path d="m233.406 120.51c8.55.02 17.1.09 25.66.16-5.37 5.51-3.04 10.95-5.45 16.33-2.17 4.86-6.67 7.91-9.6 12.35-2.93 4.45-4.86 10.26-2.51 15.04-.55-5.12 3.77-9.48 8.26-11.99 4.5-2.52 9.65-4.18 13.13-7.97 2.81-3.06 4.78-6.88 6.04-10.84 1.7-5.33 4.42-9.63 8.7-12.77 7.05.05 14.1.08 21.14.08-2.34 3.02-4.2 6.4-5.47 10.01-1.98 5.65-2.61 11.94-6.11 16.8-3.32 4.61-8.68 7.19-13.1 10.77-4.06 3.29-7.54 8.45-6.55 13.41v.02c-12.8-.17-25.7-.38-38.99-.72-3.75-.1-7.62-.16-11.4.13l-.01-.06c-19.95 1.48-34.39 9.39-42.09 23.77-3.69 6.91-4.95 14.69-5.39 22.58-7.59-.05-15.29-.12-23.01-.25-4.06-.07-8.2-.64-12.05-1.95.76-13.1.14-30.22.33-44.93.18-14.53 3.21-29.51 15.42-39.2.99-.81 2.04-1.56 3.15-2.27 10.82-6.95 24.24-7.86 37.09-8.16 14.27-.33 28.54-.39 42.81-.34z" fill="#f6b855"/><path d="m297.366 36.64.03.04c-5.97 4.47-11.04 12.16-11.64 19.6-.59 7.44 1.83 14.76 8.2 20.29l-.05.09c-1.78-1.08-3.52-2.21-5.23-3.39-5.22-3.58-10.12-7.61-14.63-12.07l.07-.07c5.92-9.7 13.94-18 23.25-24.49z" fill="#ff564f"/><path d="m57.806 194.49c-.31-27.49 5.47-59.46 14.59-76.27 22.31-41.15 51.37-31.39 65.74-31.78 25.66-.68 29.65-14.8 43.97-16.11 19.16-1.74 29.71-6.35 35.68-19.43v-.43c15 .05 29.27-.07 41.87-.78 11.36-.64 15.22-2.31 22.87-12.3-2.81 4.61-5.14 9.53-6.89 14.71-.02.01-.03.03-.02.05-15.14 19.87-27.37 39.18-38.55 61.04l-.24-.12c-19.71-.2-40.96-.26-61.14-.14-12.59.08-25.63.24-37.07 5.5-10.79 4.95-17.62 11.88-20.75 29.34-.24 1.03-.42 2.13-.53 3.3-1.09 11.45-.39 26.41-.56 34.17-.24 11.71 2.5 20.6 10.45 26.41 2.24 1.64 4.74 2.87 7.38 3.76 3.85 1.31 7.99 1.88 12.05 1.95 7.72.13 15.42.2 23.01.25-.21 3.67-.24 7.37-.26 11.02-.07 14.84-.14 29.57-.2 44.27-12.15-.18-24.29-.7-36.35-1.86-8.11-.78-16.19-1.85-24.22-3.3-14.75-2.67-30.28-7.24-39.78-18.84-9.47-11.57-10.41-25.75-11.07-40.69-.05-4.86-.09-9.43-.12-13.72z" fill="#bdb89b"/><path d="m277.636 120.82c-4.28 3.14-7 7.44-8.7 12.77-1.26 3.96-3.23 7.78-6.04 10.84-3.48 3.79-8.63 5.45-13.13 7.97-4.49 2.51-8.81 6.87-8.26 11.99-2.35-4.78-.42-10.59 2.51-15.04 2.93-4.44 7.43-7.49 9.6-12.35 2.41-5.38.08-10.82 5.45-16.33 6.19.06 12.38.11 18.57.15z" fill="#62b57f"/><path d="m236.826 113.07.24.12c-1.23 2.41-2.45 4.85-3.66 7.32-14.27-.05-28.54.01-42.81.34-12.85.3-26.27 1.21-37.09 8.16-1.11.71-2.16 1.46-3.15 2.27l-.04-.05c-7.55.09-28.47-1.08-32.45 16.54 3.13-17.46 9.96-24.39 20.75-29.34 11.44-5.26 24.48-5.42 37.07-5.5 20.18-.12 41.43-.06 61.14.14z" fill="#8e614b"/><path d="m217.786 50.47v.43c-5.97 13.08-16.52 17.69-35.68 19.43-14.32 1.31-18.31 15.43-43.97 16.11-14.37.39-43.43-9.37-65.74 31.78-9.12 16.81-14.9 48.78-14.59 76.27h-.14c-.52-56.21-.31-66 1.8-91.6 1.14-13.86 5.38-28.39 15.68-37.74 9-8.17 21.66-10.73 33.72-12.15 31.96-3.77 72.61-2.65 108.92-2.53z" fill="#f6b855"/><path d="m217.146 171.26.01.06c-6.23.49-12.24 1.93-17.1 5.69-5.9 4.57-9.09 11.95-10.12 19.35-1.03 7.39-1.16 13.85-1.16 21.36-6.24-.04-12.63-.07-19.11-.11.44-7.89 1.7-15.67 5.39-22.58 7.7-14.38 22.14-22.29 42.09-23.77z" fill="#8e614b"/><path d="m188.776 217.72c8.44.06 16.59.14 24.3.3-2.43 7.08-2.6 15.06-2.64 22.67-.08 10.66-.15 21.33-.22 31.99h-.42c-6.88.11-13.77.22-20.66.27-6.64.06-13.29.06-19.93-.05.06-14.7.13-29.43.2-44.27.02-3.65.05-7.35.26-11.02 6.48.04 12.87.07 19.11.11z" fill="#f6b855"/><path d="m189.136 272.95v.21c-.61 24.18-.88 38.48-.88 61.47-.2 16.51-7.35 24.41-16.42 30.66-1 .69-2.02 1.35-3.06 1.99l-.01-.02c.15-31.71.29-62.95.44-94.36 6.64.11 13.29.11 19.93.05z" fill="#8e614b"/><path d="m169.206 272.9c-.15 31.41-.29 62.65-.44 94.36l.01.02c-5.08 3.12-10.5 5.67-15.8 8.43l-.05-.09c1.81-5.67 3.07-14.76 3.31-21.01.47-11.89.05-20.73-5.84-34.19.06.95.7 8.79 1.14 14.49l-.15.01c-1.48-17.79-10.01-33.62-22.84-44.78l.1-.11c3.45-1.8 3.94-4.34 3.98-7.42.05-4.66.35-7.55.22-11.42l.01-.15c12.06 1.16 24.2 1.68 36.35 1.86z" fill="#f6b855"/><path d="m150.396 320.42c5.89 13.46 6.31 22.3 5.84 34.19-.24 6.25-1.5 15.34-3.31 21.01l.05.09c-3.4 1.77-6.76 3.63-9.93 5.78-2.46 1.67-4.84 3.61-6.99 5.76l-1.96-1.21c11.08-11.95 17.84-27.83 17.84-45.25 0-.5-.17-2.89-.4-5.88-.44-5.7-1.08-13.54-1.14-14.49z" fill="#010101"/><path d="m49.296 400.78c-.77-.36-1.52-.73-2.24-1.12.52.52 1.06 1.04 1.62 1.54-18.12 12.37-28.09 35.83-24.17 57.46 1.78 9.82 6.66 19.66 13.53 27.67-7.36.09-14.79.19-22.3.3-6.03-6.5-10.59-14.39-12.95-22.93-6-21.72 1.66-46.19 17.76-61.96 2.86-2.8 5.99-5.39 8.3-8.66 1.6-2.26 2.78-4.95 3-7.67l.02-.02c12.56 13.74 30.81 22.39 51.11 22.39 37.91 0 68.64-30.14 68.64-67.31 0-1.87-.08-3.72-.23-5.55l.15-.01c.23 2.99.4 5.38.4 5.88 0 17.42-6.76 33.3-17.84 45.25-12.55 13.55-30.67 22.06-50.81 22.06-11.07 0-24.33-2.73-33.99-7.32z" fill="#f6b855"/><path d="m151.386 334.92c.15 1.83.23 3.68.23 5.55 0 37.17-30.73 67.31-68.64 67.31-20.3 0-38.55-8.65-51.11-22.39-10.91-11.91-17.54-27.66-17.54-44.92 0-31.61 22.21-58.13 52.17-65.36l.17.69-26.93 35.49v36.33l41.22 21.93 43.23-21.93v-36.33l-23.94-35.27.18-.67c10.59 2.72 20.18 7.86 28.12 14.79 12.83 11.16 21.36 26.99 22.84 44.78zm-60.73 50.82c0-4.87-3.94-8.81-8.8-8.81-4.87 0-8.81 3.94-8.81 8.81 0 4.86 3.94 8.81 8.81 8.81 4.86 0 8.8-3.95 8.8-8.81z" fill="#ff564f"/><path d="m134.096 386.04 1.96 1.21c-5.79 5.81-9.89 13.2-9.4 21.22.02.13.05.27.08.4l-.09.02c-9.41 5.74-20.52 9.05-32.42 9.05-16.39 0-34.25-6.46-45.55-16.74.2-.14.41-.28.62-.42 9.66 4.59 22.92 7.32 33.99 7.32 20.14 0 38.26-8.51 50.81-22.06z" fill="#010101"/><path d="m124.186 311.29v36.33l-43.23 21.93-41.22-21.93v-36.33l26.93-35.49 3.61 2.11-26.73 34.97v32.36l18.97 10.1 18.09 9.62 39.06-19.72v-32.36l-25.91-38.9c2.26.35 4.49.81 6.67 1.37l-.18.67z" fill="#82cabe"/><path d="m119.666 312.88v32.36l-39.06 19.72-18.09-9.62.29-.54v-31.03l25.67-35.19-18.2-10.67 2.75-3.6-.06-.44c3.27-.48 6.61-.72 10.01-.72 3.67 0 7.27.28 10.78.83z" fill="#010101"/><path d="m88.476 288.58-25.67 35.19-19.26-10.89 26.73-34.97z" fill="#82cabe"/><path d="m81.856 376.93c4.86 0 8.8 3.94 8.8 8.81 0 4.86-3.94 8.81-8.8 8.81-4.87 0-8.81-3.95-8.81-8.81 0-4.87 3.94-8.81 8.81-8.81zm4.12 8.81c0-2.28-1.85-4.12-4.12-4.12-2.28 0-4.13 1.84-4.13 4.12s1.85 4.12 4.13 4.12c2.27 0 4.12-1.84 4.12-4.12z" fill="#82cabe"/><path d="m81.856 381.62c2.27 0 4.12 1.84 4.12 4.12s-1.85 4.12-4.12 4.12c-2.28 0-4.13-1.84-4.13-4.12s1.85-4.12 4.13-4.12z" fill="#cde8e3"/><path d="m72.966 273.87.06.44-2.75 3.6-3.61-2.11-.17-.69c2.12-.52 4.27-.93 6.47-1.24z" fill="#ff564f"/><path d="m71.706 504.16v.13c-6.69-.09-13.41-.18-20.17-.27-13.66-.66-26.48-7.37-35.8-17.39 7.51-.11 14.94-.21 22.3-.3 8.75 10.18 20.73 17.4 33.67 17.83z" fill="#8d634b"/><path d="m62.806 323.77v31.03l-.29.54-18.97-10.1v-32.36z" fill="#cde8e3"/><path d="m282.565 38.09c-.152 0-.307-.046-.439-.143-.335-.243-.41-.712-.167-1.048.243-.335.497-.671.763-1.016.252-.33.724-.392 1.051-.139.329.252.392.723.139 1.051-.256.335-.502.659-.737.984-.148.203-.378.311-.61.311z"/><path d="m57.786 208.96c-.411 0-.746-.331-.75-.742-.05-4.861-.09-9.432-.12-13.723-.515-55.716-.313-65.996 1.803-91.667.965-11.724 4.511-27.874 15.924-38.233 9.281-8.425 22.464-10.966 34.136-12.34 26.675-3.146 59.14-2.895 90.539-2.651 6.237.049 12.415.096 18.472.116 13.079.045 28.282-.015 41.825-.778 10.956-.618 14.727-2.096 22.316-12.008.251-.327.723-.391 1.052-.14.329.252.392.723.14 1.052-7.899 10.314-12.091 11.954-23.424 12.594-13.583.765-28.812.828-41.915.78-6.059-.021-12.237-.068-18.478-.116-31.354-.244-63.77-.494-90.352 2.642-11.437 1.346-24.336 3.82-33.304 11.961-11.051 10.03-14.494 25.79-15.437 37.245-2.109 25.61-2.312 35.875-1.797 91.532.03 4.291.07 8.859.12 13.719.004.414-.328.754-.742.758-.003-.001-.005-.001-.008-.001z"/><path d="m423.705 66.32c-.367 0-.688-.27-.741-.644-3.261-22.841-17.594-43.334-38.341-54.82-20.358-11.273-46.213-12.416-67.473-2.98-13.896 6.162-25.951 16.765-33.944 29.854-.021.036-.047.07-.074.103-2.83 4.664-5.103 9.526-6.785 14.507-.007.019-.014.036-.021.054v.003c-.923 2.658-1.692 5.431-2.286 8.239-.085.405-.482.667-.889.578-.405-.085-.664-.483-.578-.889.606-2.869 1.393-5.702 2.335-8.421l.002.001c.006-.021.013-.04.021-.06 1.73-5.119 4.071-10.113 6.956-14.847.015-.023.039-.057.065-.091 8.15-13.328 20.434-24.125 34.591-30.403 21.681-9.624 48.048-8.457 68.808 3.039 21.156 11.713 35.772 32.618 39.099 55.92.059.41-.227.79-.636.849-.038.006-.074.008-.109.008z"/><path d="m351.37 94.37c-1.31 0-2.615-.021-3.921-.062-5.396-.18-10.861-.783-16.249-1.794-4.441-.821-8.863-1.927-13.139-3.285-6.152-1.927-12.191-4.409-17.943-7.377-2.33-1.189-4.685-2.506-6.992-3.911-1.772-1.075-3.557-2.232-5.303-3.438-5.318-3.646-10.31-7.765-14.832-12.237-.227-.208-.481-.461-.746-.726-.586-.586-.586-1.535 0-2.121s1.535-.586 2.121 0c.235.235.461.461.696.678 4.434 4.383 9.286 8.386 14.462 11.935 1.701 1.175 3.436 2.3 5.16 3.346 2.245 1.367 4.534 2.647 6.803 3.806 5.605 2.892 11.483 5.308 17.477 7.185 4.163 1.323 8.463 2.398 12.785 3.197 5.243.983 10.557 1.57 15.797 1.745 1.271.039 2.546.06 3.82.06 3.499-.01 7.038-.199 10.514-.563 3.109-.313 6.237-.771 9.303-1.36 1.183-.216 2.442-.478 3.859-.801.055-.02.111-.036.169-.049 16.279-3.734 31.626-11.18 44.38-21.532.692-.541 1.353-1.096 2.004-1.659.421-.355.771-.65 1.113-.955.616-.555 1.566-.498 2.117.121.552.618.497 1.566-.121 2.117-.362.323-.733.637-1.105.95-.832.72-1.499 1.272-2.139 1.772-13.042 10.586-28.749 18.222-45.408 22.07-.056.02-.112.036-.171.05-1.529.352-2.886.634-4.146.863-3.14.604-6.356 1.074-9.549 1.396-3.571.375-7.212.569-10.816.579z"/><path d="m420.616 68.514c-.042 0-.083-.021-.106-.061-.018-.028-.033-.061-.047-.092-.011-.023-.021-.046-.033-.067-5.649-11.677-14.388-22.121-25.277-30.214-8.46-6.295-17.813-10.924-27.801-13.761-5.889-1.673-11.889-2.671-17.831-2.965-6.873-.345-13.877.24-20.828 1.736-11.066 2.384-21.874 7.104-31.255 13.65-9.44 6.581-17.468 15.036-23.215 24.453-.036.058-.113.076-.172.041-.059-.036-.077-.112-.041-.172 5.765-9.445 13.816-17.927 23.285-24.527 9.407-6.565 20.246-11.299 31.345-13.689 6.973-1.501 14.003-2.083 20.893-1.742 5.962.296 11.98 1.296 17.888 2.975 10.017 2.845 19.397 7.487 27.881 13.8 10.923 8.117 19.688 18.594 25.348 30.296.012.019.027.051.041.082.011.023.021.046.033.067.036.059.018.136-.042.171-.021.014-.044.019-.066.019z"/><path d="m422.626 66.804c-.05 0-.097-.03-.116-.079-.011-.027-.019-.052-.027-.076-.007-.021-.014-.041-.022-.063-9.933-29.492-38.35-50.955-70.714-53.411-29.616-2.231-55.898 11.254-76.009 38.998-.055.063-.098.124-.14.182l-.051.069c-.041.057-.119.067-.175.026s-.067-.12-.026-.175l.049-.067c.046-.063.094-.13.146-.19 18.721-25.827 42.794-39.331 69.926-39.331 2.082 0 4.181.079 6.299.238 15.698 1.192 30.753 6.863 43.538 16.401 12.994 9.694 22.466 22.549 27.391 37.174.009.021.017.046.025.07.007.021.014.041.022.063.025.064-.006.137-.07.162-.016.007-.031.009-.046.009z"/><path d="m359.447 91.759c-13.884 0-28.034-9.042-34.362-22.263-4.313-8.992-5.403-19.882-3.067-30.661 1.224-5.664 3.314-11.086 6.215-16.115.136-.232.444-.339.682-.218.237.125.349.391.233.633-.011.024-.04.073-.056.095-2.842 4.93-4.896 10.254-6.098 15.816-2.288 10.564-1.226 21.225 2.993 30.019 6.538 13.659 21.635 22.727 35.889 21.598 1.465-.126 2.813-.329 4.122-.62 10.596-2.358 19.959-10.251 25.045-21.114 2.632-5.634 4.113-11.925 4.403-18.699.175-3.971-.065-8.065-.714-12.17-.004-.026-.006-.082-.006-.108 0-.276.224-.5.5-.5s.5.224.5.5c.652 4.123.896 8.284.72 12.321-.297 6.906-1.81 13.325-4.497 19.08-5.218 11.142-14.838 19.242-25.734 21.667-1.352.301-2.744.51-4.256.64-.835.065-1.673.099-2.512.099z"/><path d="m395.885 50.5c-.059 0-.118-.021-.165-.063-3.312-2.92-6.998-5.523-10.957-7.739-1.709-.96-3.476-1.852-5.25-2.65-9.813-4.431-20.787-6.63-31.701-6.328-2.069.048-4.225.202-6.407.458-6.604.773-12.929 2.452-18.8 4.992-.123.051-.295.009-.353-.116-.056-.124-.027-.261.096-.319.01-.005.044-.019.055-.021 5.92-2.561 12.292-4.253 18.943-5.031 2.198-.258 4.369-.413 6.453-.462 10.999-.312 22.038 1.91 31.919 6.373 1.788.804 3.568 1.702 5.289 2.67 3.99 2.231 7.705 4.856 11.043 7.8.104.092.114.249.022.353-.049.054-.117.083-.187.083z"/><path d="m293.956 76.695c-.029 0-.059-.01-.082-.03-6.035-5.239-8.885-12.292-8.243-20.395.563-6.963 5.261-14.876 11.69-19.69.055-.042.134-.03.175.024.042.056.03.134-.024.175-6.377 4.774-11.034 12.615-11.591 19.511-.443 5.593.611 13.635 8.157 20.186.052.046.058.125.013.177-.026.027-.06.042-.095.042z"/><path d="m288.265 92.594c-.016 0-.032-.003-.048-.01-.047-.019-.077-.065-.077-.116.013-1.785.014-3.423.015-4.979.003-4.77.005-8.889.346-14.157.005-.069.07-.119.133-.117.069.005.121.064.117.133-.341 5.261-.343 9.376-.346 14.142-.001 1.467-.002 3.006-.013 4.672 1.973-2.004 4.033-3.879 6.029-5.693 2.065-1.879 4.202-3.822 6.234-5.904.048-.05.129-.05.177-.003.05.049.051.128.003.177-2.038 2.088-4.178 4.033-6.246 5.915-2.065 1.879-4.202 3.822-6.234 5.904-.024.024-.057.036-.09.036z"/><path d="m318.856 105.945c-.012 0-.022-.002-.034-.005-.048-.014-.084-.055-.09-.105-.351-2.933-.707-10.68-.361-17.991.003-.069.077-.122.131-.119.069.003.122.062.119.131-.335 7.063-.012 14.526.325 17.652.862-1.062 2.148-2.452 3.622-4.044 2.76-2.983 6.194-6.695 8.776-10.336.04-.058.118-.07.174-.029.057.039.069.117.029.174-2.59 3.653-6.031 7.373-8.797 10.361-1.581 1.709-2.946 3.185-3.796 4.264-.024.03-.06.047-.098.047z"/><path d="m354.906 110.835c-.009 0-.018-.001-.026-.003-.045-.01-.081-.043-.094-.087-1.303-4.457-2.495-10.451-3.544-17.817-.01-.068.038-.132.106-.142.064-.015.132.037.142.106 1.029 7.232 2.197 13.139 3.472 17.561 6.005-6.977 11.675-13.755 16.406-19.611.003-.004.026-.026.029-.03.049-.049.129-.049.178 0 .048.049.048.129 0 .178-.002.001-.023.021-.025.023-4.76 5.894-10.486 12.738-16.549 19.779-.025.027-.059.043-.095.043z"/><path d="m417.075 241.73c-.354 0-.669-.252-.736-.613-.076-.407.193-.799.601-.874 6.178-1.148 10.65-3.646 13.292-7.423 3.092-4.441 5.77-9.461 7.218-25.956 2.789-31.763 5.673-64.606 2.869-105.943-.16-2.326-.33-4.692-.529-7.078-.526-6.404-1.938-11.854-4.198-16.197-2.766-5.281-6.863-9.113-12.18-11.386-.381-.163-.558-.604-.395-.984.162-.381.602-.558.984-.395 5.642 2.412 9.988 6.474 12.919 12.071 2.354 4.523 3.822 10.164 4.363 16.767.201 2.393.371 4.767.531 7.1 2.813 41.454-.077 74.357-2.871 106.177-1.346 15.33-3.668 21.205-7.482 26.684-2.876 4.111-7.669 6.815-14.248 8.039-.046.007-.092.011-.138.011z"/><path d="m402.635 118.285c-.075 0-.151-.022-.217-.069-.169-.119-.209-.354-.089-.522 2.609-3.683 5.962-6.944 9.964-9.693 2.042-1.4 4.269-2.659 6.615-3.741 2.216-1.015 4.47-1.839 6.697-2.45 2.592-.725 5.195-1.203 7.737-1.423 2.66-.233 5.274-.197 7.769.112.206.025.352.213.326.418s-.204.349-.418.326c-2.445-.303-5.005-.34-7.611-.108-2.496.215-5.054.685-7.603 1.397-2.19.602-4.405 1.412-6.584 2.409-2.309 1.063-4.497 2.302-6.505 3.679-3.928 2.698-7.218 5.897-9.776 9.508-.072.102-.187.157-.305.157z"/><path d="m402.635 118.285c-.015 0-.03-.001-.045-.003-.206-.024-.353-.212-.327-.417.751-6.164 3.017-12.567 6.55-18.517 1.749-2.927 3.758-5.685 5.972-8.196 2.156-2.454 4.485-4.667 6.92-6.577 2.348-1.868 4.811-3.47 7.32-4.759 2.332-1.222 4.731-2.19 7.127-2.877.189-.089.418-.007.506.179.09.187.017.412-.171.501-.028.014-.094.033-.124.039-2.352.675-4.702 1.624-6.993 2.824-2.468 1.268-4.89 2.843-7.2 4.681-2.4 1.884-4.695 4.064-6.822 6.484-2.184 2.479-4.165 5.198-5.89 8.085-3.48 5.86-5.711 12.162-6.45 18.223-.024.19-.185.33-.373.33z"/><path d="m134.596 216.312c-.415 0-.751-.339-.751-.753 0-.027.007-.128.01-.155.479-8.268.409-18.263.342-27.93-.04-5.681-.081-11.555-.011-17.004.232-18.82 5.223-31.461 15.704-39.778.97-.795 2.023-1.555 3.211-2.314 11.034-7.088 24.564-7.976 37.477-8.278 12.546-.29 26.159-.394 42.831-.34 8.703.021 17.325.092 25.663.16 6.19.061 12.38.11 18.568.15 7.627.054 14.54.08 21.136.08 11.363 0 21.485-.099 30.944-.301l2.83-.06c11.893-.271 24.093-.546 35.899 1.592 4.496.82 8.787 1.979 12.756 3.445 6.143 2.283 11.536 5.312 16.035 9.003 1.179.967 2.293 1.978 3.405 3.09 11.845 11.87 17.106 27.91 16.56 50.479-.01.413-.308.746-.769.731-.414-.011-.741-.354-.731-.769.536-22.13-4.586-37.821-16.121-49.382-1.076-1.076-2.154-2.054-3.295-2.989-4.37-3.586-9.62-6.532-15.605-8.757-3.886-1.436-8.093-2.571-12.503-3.375-11.654-2.111-23.78-1.837-35.505-1.57l-2.925.062c-9.469.202-19.602.301-30.976.301-6.599 0-13.516-.026-21.146-.08-6.19-.04-12.382-.09-18.572-.15-8.334-.068-16.954-.14-25.654-.16-16.658-.055-30.259.05-42.791.34-12.699.297-25.993 1.163-36.702 8.041-1.139.729-2.146 1.455-3.079 2.22-10.109 8.022-14.919 20.295-15.146 38.629-.07 5.436-.029 11.302.011 16.975.067 9.69.138 19.711-.342 27.989-.001.013-.008.1-.009.112.001.413-.335.746-.749.746z"/><path d="m233.428 120.745-.225-.109.091-.182c1.219-2.489 2.451-4.953 3.66-7.32 11.089-21.684 23.343-41.086 38.562-61.06l.188-.248.201.148-.189.25c-15.211 19.963-27.457 39.353-38.539 61.022-1.209 2.367-2.439 4.829-3.659 7.317z"/><path d="m339.507 193.695c-5.437 0-11.403-.084-17.567-.171-7.586-.105-15.437-.213-22.924-.18-.001 0-.001 0-.001 0-.068 0-.125-.056-.125-.124 0-.069.056-.126.124-.126 7.502-.036 15.342.073 22.93.18 10.714.151 20.833.293 28.597.001 5.054-.204 8.812-.534 12.186-1.068 9.985-1.581 17.224-5.188 24.984-12.448 11.093-10.388 17.446-30.138 8.877-45.207-.034-.06-.014-.136.047-.17.058-.035.136-.015.17.047 3.953 6.951 5.036 15.591 3.048 24.329-1.832 8.054-6.195 15.774-11.972 21.183-7.8 7.298-15.076 10.924-25.115 12.513-3.384.537-7.15.867-12.215 1.072-3.302.123-7.029.169-11.044.169z"/><path d="m296.166 193.365c-.068 0-.124-.055-.125-.123-.001-.069.055-.126.123-.127.363-.005.729-.007 1.097-.01.4-.003.802-.005 1.203-.011h.002c.068 0 .124.055.125.123.001.069-.055.126-.123.127-.402.006-.805.008-1.206.011-.366.003-.731.005-1.094.01-.001 0-.001 0-.002 0z"/><path d="m210.005 304.889c-.002 0-.003 0-.005 0-.414-.003-.748-.341-.745-.755l.211-31.668c.07-10.591.141-21.192.22-31.782.043-8.079.279-15.913 2.681-22.908.896-2.605 2.073-4.999 3.497-7.115 5.535-8.199 15.729-13.576 30.3-15.981 12.102-1.988 24.563-2.028 36.615-2.068 3.469-.011 7.055-.022 10.574-.081h.013c.409 0 .743.328.75.737.007.414-.323.756-.737.763-3.53.059-7.121.07-10.595.081-11.992.039-24.394.08-36.376 2.049-14.147 2.335-24.006 7.496-29.3 15.34-1.351 2.007-2.469 4.283-3.323 6.764-2.326 6.78-2.557 14.479-2.599 22.431-.079 10.592-.149 21.191-.22 31.782l-.001.208-.21 31.46c-.002.411-.337.743-.75.743z"/><path d="m213.116 218.769h-.04c-8.218-.17-16.897-.247-24.306-.3l-19.109-.109c-6.302-.042-14.613-.108-23.018-.25-4.495-.078-8.626-.747-12.278-1.99-2.833-.955-5.385-2.256-7.582-3.864-7.603-5.558-11.021-14.146-10.757-27.031.053-2.412.021-5.479-.015-9.029-.078-7.7-.176-17.284.577-25.196.111-1.177.295-2.32.547-3.399 3.857-17.08 23.289-17.103 31.587-17.112.577-.001 1.107-.001 1.585-.007.431-.036.754.326.759.741.005.414-.327.754-.741.759-.481.006-1.018.006-1.601.007-8.611.011-26.532.031-30.127 15.947-.237 1.019-.41 2.096-.515 3.206-.746 7.835-.649 17.374-.571 25.04.036 3.563.067 6.641.015 9.076-.254 12.351 2.97 20.545 10.143 25.788 2.073 1.519 4.488 2.748 7.177 3.654 3.508 1.193 7.485 1.836 11.823 1.911 8.397.142 16.703.208 23.002.25l19.11.109c7.413.053 16.099.131 24.311.3.411.009.759.347.754.758-.005.41-.319.741-.73.741z"/><path d="m180.675 273.74c-4.051 0-7.852-.03-11.482-.09-13.559-.202-25.469-.812-36.409-1.864-8.587-.825-16.529-1.908-24.281-3.308-13.438-2.433-30.152-6.802-40.227-19.103-9.96-12.168-10.64-27.556-11.239-41.133-.019-.414.302-.765.716-.782.414-.046.764.302.782.716.59 13.344 1.258 28.467 10.901 40.249 9.765 11.922 26.149 16.19 39.333 18.576 7.711 1.393 15.613 2.47 24.159 3.292 10.899 1.048 22.77 1.655 36.288 1.856 6.042.1 12.556.117 19.912.05 6.906-.05 13.896-.162 20.655-.271.438.031.755.324.762.738s-.324.755-.738.762c-6.762.108-13.755.221-20.666.271-2.949.027-5.763.041-8.466.041z"/><path d="m262.236 278.91c-.002 0-.005 0-.007 0-.415-.004-.747-.343-.743-.757l.021-2.483c.009-1.088.017-2.132.028-3.139.108-8.215.474-13.169 2.173-17.447 1.443-3.661 3.852-6.658 7.809-9.718 5.701-4.418 16.724-4.959 26.742-4.906 7.281.04 14.353.1 21.283.16 4.646.047 9.223.097 13.746.146 10.177.112 19.788.219 29.461.273.415.002.748.34.746.754-.002.413-.338.746-.75.746-.001 0-.003 0-.004 0-9.677-.056-19.291-.161-29.47-.273-4.522-.05-9.099-.1-13.744-.146-6.928-.061-13.997-.12-21.276-.16-5.915-.032-19.756-.104-25.816 4.593-3.731 2.885-5.992 5.686-7.332 9.083-1.613 4.063-1.962 8.884-2.067 16.914-.012 1.004-.021 2.046-.028 3.132l-.021 2.485c-.005.412-.34.743-.751.743z"/><path d="m350.28 302.914c-3.916 0-7.452-2.827-9.146-6.022-1.95-3.679-2.236-7.89-2.513-11.962l-.023-.349c-.605-8.664-1.434-20.533-4.755-28.554-3.145-7.596-6.279-10.574-14.583-13.86-.385-.152-.573-.588-.421-.974.151-.385.586-.575.974-.421 8.663 3.428 12.121 6.721 15.417 14.681 3.414 8.247 4.252 20.256 4.864 29.025l.023.35c.267 3.916.541 7.965 2.342 11.36 1.678 3.164 5.396 5.923 9.245 5.069 8.056-1.777 9.467-7.691 9.793-13.817.839-15.692.835-31.154.759-45.646l-.043-7.036c-.08-12.271-.163-24.96.123-37.794.038-1.452-.073-2.969-.33-4.511-.602-3.638-2.003-7.278-3.947-10.253-2.678-4.096-7.59-6.736-14.6-7.849-1.967-.319-4.105-.508-6.36-.562-2.385-.063-4.759-.117-7.125-.172l-.825-.019c-7.44-.163-15.186-.303-24.373-.439-6.62-.101-13.199-.19-19.769-.271-5.82-.069-11.632-.14-17.473-.229-10.5-.14-24.424-.348-38.998-.72-3.462-.093-7.478-.168-11.322.128-7.247.568-12.554 2.327-16.699 5.534-5.212 4.038-8.705 10.736-9.835 18.861-1.065 7.638-1.153 14.412-1.153 21.256 0 .414-.336.756-.75.756s-.75-.331-.75-.745v-.011c0-6.898.089-13.73 1.167-21.463 1.185-8.515 4.879-15.561 10.403-19.84 4.388-3.395 9.948-5.251 17.501-5.845 3.92-.3 7.979-.226 11.479-.132 14.563.373 28.481.58 38.979.72 5.841.09 11.65.16 17.469.229 6.571.08 13.152.17 19.773.271 9.191.138 16.939.277 24.385.439l.825.02c2.368.054 4.744.108 7.128.171 2.322.056 4.529.25 6.561.58 7.443 1.181 12.699 4.044 15.618 8.51 2.056 3.145 3.537 6.99 4.172 10.828.272 1.635.39 3.248.35 4.792-.286 12.81-.203 25.487-.123 37.748l.043 7.038c.076 14.515.08 30.002-.761 45.734-.34 6.396-1.909 13.204-10.968 15.202-.588.132-1.172.194-1.748.194z"/><path d="m293.366 194.03c-.41 0-.745-.33-.75-.741-.005-.414.327-.754.741-.759l8.522-.084c15.393-.125 29.932-.243 33.93-2.648 4.873-2.929 7.153-5.471 7.007-16.097-.006-.415.325-.755.739-.761h.011c.409 0 .744.329.75.739.149 10.895-2.157 14.053-7.733 17.403-4.35 2.617-18.41 2.731-34.691 2.863l-8.517.084c-.003.001-.006.001-.009.001z"/><path d="m168.765 367.385c-.069 0-.125-.057-.125-.126.069-14.667.137-29.233.204-43.762.078-16.884.155-33.716.236-50.598.057-14.015.123-28.057.19-42.194l.01-2.076c.021-3.912.055-7.442.26-11.025.539-9.662 2.206-16.643 5.404-22.632 7.661-14.308 21.857-22.327 42.192-23.837h.009c.065 0 .12.05.125.116.005.068-.047.128-.116.134-20.243 1.502-34.371 9.478-41.989 23.704-3.181 5.957-4.838 12.904-5.375 22.528-.205 3.578-.239 7.104-.26 11.014l-.01 2.075c-.067 14.138-.134 28.18-.19 42.195-.081 16.881-.158 33.714-.236 50.597-.067 14.529-.135 29.096-.204 43.763 0 .068-.056.124-.125.124z"/><path d="m188.255 335.38c-.414 0-.75-.336-.75-.75 0-22.874.26-36.861.88-61.488.011-.413.342-.721.769-.731.414.011.741.354.731.769-.62 24.614-.88 38.593-.88 61.451 0 .413-.335.749-.75.749z"/><path d="m126.655 409.219c-.393 0-.724-.307-.748-.704-.578-9.459 4.911-17.073 9.617-21.795 2.13-2.131 4.519-4.099 7.101-5.851 3.458-2.347 7.163-4.346 10.005-5.825 1.419-.739 2.847-1.463 4.273-2.187 3.827-1.94 7.784-3.947 11.48-6.217 1.092-.673 2.082-1.317 3.026-1.969 8.239-5.678 15.892-13.248 16.096-30.052.005-.411.34-.741.75-.741h.009c.414.005.746.345.741.759-.212 17.487-8.173 25.362-16.744 31.269-.965.667-1.977 1.324-3.092 2.012-3.749 2.303-7.734 4.323-11.588 6.277-1.423.722-2.845 1.442-4.259 2.179-2.98 1.552-6.481 3.446-9.856 5.736-2.503 1.699-4.818 3.606-6.881 5.669-4.488 4.504-9.726 11.741-9.181 20.644.024.414-.29.77-.703.795-.015.001-.031.001-.046.001z"/><path d="m128.647 290.78c-.271 0-.532-.146-.666-.403-.191-.367-.049-.82.318-1.012 2.952-1.541 3.534-3.566 3.576-6.765.021-1.895.081-3.468.139-4.989.085-2.21.158-4.119.081-6.396-.014-.414.311-.761.725-.775.441.006.762.312.775.725.078 2.331.004 4.265-.082 6.504-.058 1.512-.118 3.074-.138 4.949-.038 2.951-.408 6.003-4.383 8.077-.11.058-.229.085-.345.085z"/><path d="m117.46 151.088-.248-.035c.151-1.074.325-2.155.531-3.306 3.233-18.037 10.364-24.634 20.821-29.431 11.634-5.35 25.175-5.436 37.121-5.512 19.51-.115 40.653-.068 61.142.141l-.002.25c-20.49-.208-41.631-.257-61.138-.141-11.922.076-25.434.162-37.02 5.488-10.384 4.764-17.465 11.318-20.679 29.249-.205 1.147-.378 2.225-.528 3.297z"/><path d="m433.366 100.735c-.064 0-.118-.049-.124-.114-.489-5.434-1.583-13.34-4.015-20.149-.022-.065.011-.137.076-.16s.137.012.16.076c2.439 6.834 3.536 14.764 4.026 20.212.007.068-.044.129-.113.135-.002 0-.006 0-.01 0z"/><path d="m425.675 102.184c-.064 0-.119-.05-.125-.115-.533-6.54-2.116-12.255-3.594-16.982-.021-.065.016-.136.082-.156.065-.021.136.016.156.082 1.482 4.741 3.069 10.473 3.605 17.037.005.068-.046.129-.115.135-.002-.001-.006-.001-.009-.001z"/><path d="m419.005 104.585c-.058 0-.11-.04-.122-.1-.75-3.56-2.122-8.26-3.766-12.894-.022-.065.012-.137.076-.16.065-.023.137.012.16.076 1.646 4.645 3.021 9.355 3.773 12.927.015.067-.028.134-.097.147-.007.003-.015.004-.024.004z"/><path d="m412.505 108.434c-.058 0-.109-.04-.122-.099-.629-2.956-1.849-6.326-3.107-8.585-.033-.06-.012-.136.049-.17.059-.034.135-.012.17.049 1.27 2.278 2.5 5.675 3.133 8.653.015.068-.028.134-.096.148-.009.003-.018.004-.027.004z"/><path d="m366.887 344.582c-1.281 0-2.342-.021-3.113-.042-7.377-.217-14.882-.178-22.136-.138-7.208.038-14.66.077-21.994-.133-4.957-.145-10.575-.307-15.438-2.686-6.137-3.009-10.874-9.662-12.999-18.254-1.266-5.109-1.617-10.432-1.958-15.578-.148-2.25-.302-4.577-.53-6.847-.155-1.525-.257-3.117-.354-4.656-.383-6.008-.779-12.221-4.428-16.642-3.848-4.663-10.67-6.675-21.447-6.317-.391-.017-.761-.313-.774-.726-.013-.414.312-.761.726-.774 11.287-.367 18.485 1.813 22.652 6.862 3.959 4.796 4.37 11.255 4.768 17.501.098 1.525.198 3.103.351 4.601.23 2.297.386 4.637.535 6.898.336 5.082.684 10.337 1.917 15.317 2.019 8.161 6.466 14.454 12.202 17.267 4.57 2.236 10.017 2.395 14.821 2.533 7.311.21 14.749.171 21.943.133 7.269-.04 14.787-.078 22.187.138 4.867.141 21.506.219 31.379-4.614 9.656-4.735 16.489-14.051 19.238-26.23 1.164-5.146 1.824-31.103 1.812-71.215-.01-25.123-.292-48.394-.539-53.564-.02-.414.3-.766.713-.785.399-.026.766.299.785.713.248 5.188.531 28.492.541 53.637.008 23.635-.223 64.358-1.849 71.545-2.852 12.631-9.969 22.308-20.041 27.248-8.598 4.206-22.019 4.808-28.97 4.808z"/><path d="m337.187 448.22c-4.397 0-8.72-1.05-12.548-2.087-16.321-4.439-32.155-11.13-47.469-17.602-10.648-4.499-21.658-9.151-32.73-13.004-32.791-11.414-60.862-12.775-83.434-4.039-1.382.534-2.757 1.109-4.134 1.686-4.844 2.024-9.853 4.119-15.196 4.414-6.617.334-14.217-1.71-15.674-8.563-.031-.135-.066-.296-.088-.445-.063-.409.22-.791.63-.853.413-.063.791.221.853.63.018.11.044.23.069.342 1.264 5.941 8.128 7.709 14.129 7.391 5.085-.281 9.972-2.324 14.698-4.3 1.39-.581 2.778-1.162 4.172-1.7 22.911-8.87 51.331-7.516 84.468 4.021 11.118 3.867 22.151 8.53 32.821 13.039 15.268 6.451 31.055 13.122 47.278 17.535 4.689 1.271 10.137 2.562 15.428 1.812 5.514-.776 10.176-4.018 11.879-8.258 2.707-6.771-2.025-13.888-5.088-17.527-.741-.871-1.494-1.69-2.236-2.433-6.841-6.841-13.401-11.252-21.271-14.301-3.417-1.327-7.204-2.432-11.577-3.376-11.725-2.521-26.701-4.163-38.153-4.184-11.448-.01-23.577-.341-34.949-4.19-12.576-4.252-22.138-12.511-26.234-22.659-2.593-6.429-2.748-13.47-2.897-20.278-.03-1.339-.06-2.676-.107-4.006-.489-13.894-.676-27.354-.57-41.152.003-.412.338-.744.75-.744h.006c.414.003.747.342.744.756-.105 13.776.081 27.216.57 41.088.047 1.336.077 2.68.106 4.025.147 6.674.3 13.576 2.789 19.751 3.933 9.741 13.163 17.688 25.324 21.799 11.157 3.776 23.146 4.102 34.471 4.111 11.549.021 26.647 1.676 38.467 4.217 4.452.962 8.313 2.088 11.804 3.444 8.073 3.128 14.793 7.643 21.789 14.639.771.771 1.551 1.619 2.321 2.524 5.663 6.73 7.557 13.496 5.335 19.054-2.306 5.741-8.259 8.509-13.062 9.186-1.162.165-2.326.237-3.484.237z"/><path d="m313.552 507.125c-78.331 0-153.985-.914-241.856-2.085l-20.17-.271c-.414-.006-.746-.346-.74-.76.006-.411.34-.74.75-.74h.01l20.17.271c103.025 1.373 189.257 2.395 282.697 2 18.127-.068 37.242-.206 56.815-.41 16.14-.088 28.375-10.027 35.798-18.349 10.355-11.629 16.048-25.157 17.096-33.406l.206-1.602c2.717-21.097 7.264-56.405-25.088-80.381-13.375-9.911-25.418-14.105-44.438-15.475l-1.806-.12c-5.962-.366-12.766-.511-22.079-.498-3.375.007-6.748.019-10.121.03-17.364.06-35.318.124-52.991-.591-9.18-.362-19.585-.773-28.344-5.644-9.755-5.413-15.136-14.416-17.447-29.189-1.301-8.32-1.118-14.692-.842-24.337.14-4.857.297-10.363.313-17.411.001-.413.337-.748.75-.748h.002c.414.001.749.338.748.752-.017 7.066-.175 12.583-.314 17.45-.273 9.562-.455 15.879.825 24.062 2.232 14.273 7.381 22.942 16.693 28.111 8.447 4.695 18.662 5.1 27.675 5.456 17.643.711 35.578.646 52.927.589 3.373-.012 6.748-.023 10.123-.03 9.319-.012 16.178.133 22.177.501l1.814.121c19.341 1.393 31.597 5.665 45.227 15.766 33.06 24.499 28.441 60.354 25.683 81.777l-.205 1.6c-1.077 8.479-6.896 22.346-17.464 34.215-7.627 8.549-20.22 18.759-36.906 18.851-19.572.204-38.691.342-56.821.41-13.752.057-27.351.085-40.867.085z"/><path d="m51.537 504.769c-.013 0-.024 0-.037-.001-13.253-.64-26.488-7.064-36.313-17.628-6.244-6.73-10.782-14.767-13.124-23.24-5.958-21.566 1.091-46.176 17.958-62.696.695-.681 1.406-1.349 2.117-2.018 2.157-2.026 4.387-4.122 6.095-6.539 1.656-2.339 2.674-4.93 2.864-7.298.034-.414.398-.711.809-.688.413.034.721.396.688.809-.273 3.373-1.856 6.235-3.136 8.043-1.795 2.54-4.081 4.688-6.292 6.767-.704.661-1.407 1.322-2.096 1.996-16.483 16.145-23.376 40.177-17.562 61.225 2.278 8.243 6.697 16.064 12.777 22.619 9.56 10.278 22.421 16.529 35.286 17.15.414.02.733.371.713.785-.019.402-.35.714-.747.714z"/><path d="m447.726 487.405h-.141c-11.361-.215-22.951-.417-34.452-.601l-.372-.006c-7.29-.115-14.829-.235-22.147-.334-14.887-.223-28.478-.396-41.549-.53-100.709-1.141-193.727-.985-311.027.521-7.436.091-14.938.191-22.3.3h-.092c-.069 0-.125-.056-.125-.125s.056-.125.125-.125h.09c7.36-.108 14.863-.209 22.298-.3 117.303-1.505 210.324-1.66 311.033-.521 13.072.135 26.664.309 41.551.53 7.317.099 14.856.219 22.147.334l.372.006c11.501.184 23.092.386 34.45.601h.139c.069 0 .125.056.125.125s-.056.125-.125.125z"/><path d="m71.706 504.285c-.001 0-.003 0-.004 0-12.035-.399-24.341-6.914-33.761-17.874-6.977-8.133-11.791-17.98-13.559-27.729-1.924-10.617-.601-21.777 3.828-32.273 4.415-10.465 11.467-19.218 20.395-25.313.199-.14.41-.28.621-.421.372-.241.742-.481 1.123-.722.058-.037.136-.02.172.039.037.058.02.135-.039.172-.379.24-.749.48-1.118.72-.208.139-.417.277-.616.418-18.083 12.344-28 35.921-24.119 57.335 1.76 9.705 6.555 19.511 13.502 27.611 9.375 10.906 21.614 17.389 33.579 17.786.069.002.123.061.121.129s-.058.122-.125.122z"/><path d="m354.416 506.375c-.601 0-1.201 0-1.812-.01-.069-.001-.124-.058-.123-.127.001-.068.057-.123.125-.123h.002c.608.01 1.209.01 1.808.01 26.531 0 45.71-6.39 58.631-19.533 12.238-12.422 16.977-29.146 19.737-42.327 4.457-21.341 2.92-43.825-4.113-60.145-6.777-15.798-18.163-25.497-33.841-28.828-.001 0-.032-.005-.033-.006-.069 0-.126-.057-.126-.125 0-.069.056-.126.125-.126.01 0 .05.006.06.009 8.224 1.745 15.354 5.299 21.223 10.564 5.312 4.767 9.626 10.961 12.823 18.413 7.052 16.365 8.595 38.905 4.127 60.294-2.768 13.216-7.52 29.983-19.804 42.452-12.971 13.194-32.208 19.608-58.809 19.608z"/><path d="m81.856 395.05c-5.134 0-9.311-4.176-9.311-9.31s4.177-9.311 9.311-9.311c5.128 0 9.3 4.177 9.3 9.311s-4.172 9.31-9.3 9.31zm0-17.621c-4.582 0-8.311 3.729-8.311 8.311s3.729 8.31 8.311 8.31c4.576 0 8.3-3.728 8.3-8.31s-3.724-8.311-8.3-8.311z"/><path d="m81.856 389.985c-2.346 0-4.255-1.904-4.255-4.245s1.909-4.245 4.255-4.245c2.341 0 4.245 1.904 4.245 4.245s-1.904 4.245-4.245 4.245zm0-8.24c-2.208 0-4.005 1.792-4.005 3.995s1.797 3.995 4.005 3.995c2.203 0 3.995-1.792 3.995-3.995s-1.792-3.995-3.995-3.995z"/><path d="m82.976 409.78c-20.035 0-39.202-8.398-52.587-23.041-11.647-12.715-18.063-29.147-18.063-46.27 0-31.998 22.083-59.674 53.701-67.304 2.146-.526 4.39-.957 6.66-1.276 6.914-1.017 14.402-.979 21.379.115 2.292.354 4.601.828 6.856 1.407 10.662 2.739 20.668 8.003 28.938 15.221 13.681 11.9 22.034 28.281 23.518 46.121v.002c.157 1.915.237 3.838.237 5.714.001 38.218-31.688 69.311-70.639 69.311zm0-134.63c-3.295 0-6.565.235-9.72.698-2.15.303-4.26.707-6.284 1.204-29.823 7.196-50.646 33.273-50.646 63.417 0 16.119 6.043 31.592 17.015 43.569 12.631 13.817 30.722 21.741 49.636 21.741 36.745 0 66.64-29.298 66.64-65.311 0-1.767-.075-3.578-.224-5.384-1.396-16.796-9.267-32.223-22.159-43.438-7.805-6.812-17.246-11.777-27.306-14.361-2.13-.547-4.31-.995-6.478-1.33-3.412-.533-6.935-.805-10.474-.805z"/><path d="m94.226 418.065c-16.521 0-34.435-6.584-45.635-16.772-.497-.444-1.028-.949-1.624-1.544-.044-.044-.05-.113-.013-.163.037-.052.106-.064.16-.036.658.356 1.39.722 2.233 1.117 9.344 4.439 22.664 7.308 33.937 7.308 19.271 0 37.757-8.025 50.718-22.02 11.483-12.385 17.808-28.425 17.808-45.165 0-.437-.135-2.412-.4-5.87-.211-2.738-.469-5.97-.686-8.694-.236-2.963-.423-5.303-.454-5.798-.004-.061.037-.115.096-.129.061-.014.12.015.144.071 6.133 14.015 6.293 23.034 5.851 34.245-.231 6.021-1.445 15.183-3.316 21.043-.021.065-.092.102-.157.081s-.102-.092-.081-.157c1.865-5.84 3.074-14.973 3.305-20.977.435-10.996.287-19.877-5.536-33.46.077 1.014.225 2.866.399 5.061.217 2.725.475 5.956.687 8.694.27 3.514.4 5.44.4 5.89 0 16.803-6.348 32.903-17.874 45.335-13.008 14.045-31.561 22.1-50.901 22.1-11.308 0-24.67-2.878-34.044-7.331-.541-.254-1.036-.495-1.495-.729.357.345.691.657 1.012.943 11.158 10.149 29.005 16.708 45.468 16.708 11.479 0 22.668-3.123 32.354-9.032.06-.036.136-.017.172.041.036.06.018.136-.041.172-9.728 5.932-20.961 9.068-32.487 9.068z"/><path d="m80.956 370.05c-.08 0-.16-.019-.234-.059l-41.22-21.93c-.164-.087-.266-.257-.266-.441v-36.33c0-.109.036-.215.102-.302l26.93-35.49c.168-.222.482-.263.7-.097.221.167.264.48.097.7l-26.828 35.356v35.861l40.954 21.789c.244.13.337.433.207.676-.091.17-.264.267-.442.267z"/><path d="m80.956 370.05c-.182 0-.357-.1-.446-.273-.125-.247-.026-.548.22-.673l42.957-21.79v-35.87l-23.854-35.143c-.154-.229-.096-.54.133-.695.23-.153.54-.095.695.133l23.94 35.271c.056.083.086.181.086.281v36.33c0 .188-.105.36-.273.446l-43.23 21.93c-.075.035-.152.053-.228.053z"/><path d="m80.606 365.085c-.02 0-.04-.005-.059-.015l-37.061-19.72c-.041-.021-.066-.064-.066-.11v-32.36c0-.027.009-.054.025-.076l29.48-38.57c.042-.056.119-.064.176-.023.055.042.065.121.023.176l-2.75 3.601-26.704 34.934v32.243l36.994 19.685c.062.032.084.108.052.169-.022.041-.065.066-.11.066z"/><path d="m80.606 365.085c-.046 0-.09-.025-.111-.068-.031-.062-.007-.137.055-.168l38.991-19.686v-32.245l-26.38-39.608c-.038-.058-.022-.136.035-.174s.135-.022.174.035l.49.74 25.91 38.899c.014.021.021.045.021.069v32.36c0 .047-.026.09-.068.111l-39.06 19.72c-.019.011-.038.015-.057.015z"/><path d="m62.805 354.925c-.069 0-.125-.056-.125-.125v-30.957l-19.196-10.854c-.061-.033-.081-.109-.047-.17.033-.06.109-.083.17-.047l19.26 10.89c.039.021.063.063.063.108v31.03c-0 .069-.055.125-.125.125z"/><path d="m62.805 323.894c-.025 0-.052-.008-.073-.024-.057-.04-.068-.118-.027-.174l25.589-35.078-21.691-12.71c-.06-.035-.079-.112-.045-.172.034-.059.11-.078.172-.045l3.61 2.11 18.2 10.671c.03.018.052.048.059.082.008.034 0 .07-.021.099l-25.671 35.189c-.026.035-.064.052-.102.052z"/><path d="m362.366 65.545c-9.939 0-18.025-9.118-18.025-20.325 0-4.281 1.162-8.368 3.359-11.817 3.382-5.327 8.864-8.508 14.666-8.508 1.553 0 3.096.224 4.585.665 6.196 1.831 11.096 7.284 12.786 14.231.44 1.762.664 3.589.664 5.429 0 11.207-8.091 20.325-18.035 20.325zm0-40.401c-5.716 0-11.119 3.138-14.455 8.393-2.172 3.409-3.32 7.448-3.32 11.683 0 11.069 7.974 20.075 17.775 20.075 9.807 0 17.785-9.006 17.785-20.075 0-1.819-.221-3.626-.656-5.369-1.671-6.861-6.504-12.245-12.614-14.051-1.467-.435-2.987-.656-4.515-.656zm-14.561 8.325h.003z"/><path d="m361.965 72.219c-13.013 0-23.6-11.883-23.6-26.489 0-4.234.856-8.269 2.546-11.989.074-.185.254-.316.464-.316.276 0 .5.219.5.495v.01c0 .071-.016.142-.045.207-1.636 3.596-2.465 7.496-2.465 11.594 0 14.055 10.138 25.489 22.6 25.489s22.601-11.435 22.601-25.489c0-1.002-.059-2.048-.178-3.198-.029-.274.171-.521.445-.549.269-.033.521.17.549.445.124 1.185.184 2.265.184 3.302 0 14.606-10.587 26.488-23.601 26.488z"/></svg>