<svg enable-background="new 0 0 415.7 379.5" height="380" viewBox="0 0 415.7 379.5" width="416" xmlns="http://www.w3.org/2000/svg"><path d="m350.4 222.6h-.5c.6-13.4-.8-26.9-4.1-39.9-10.5-43.6-35.8-86-75.4-126-19.2-19.4-41.1-35.8-65.1-48.7l.2-.4c24 12.9 46 29.4 65.2 48.7 39.6 40.1 65 82.6 75.5 126.3 3.3 13.1 4.7 26.5 4.2 40z"/><path d="m403.1 151.6c-31.7-110.8-120.1-160.8-197.7-143.8-5.4 1.2-10.8 2.7-16 4.5 0 10.5-15.4 33-29.1 33.4 4.3 11.1-8.5 30.3-25.6 19.2.3 12.3-10.4 16.1-19.9 14 2.6 13 12.9 31.3 19.7 42.8 12.4 21.2 18.8 28.9-29.3 28.9-47.7 0-50.5 28.6-31.5 40.5 5.9 3.7 10 .9 8.4-5.9-1.6-7 4.9-14.2 28.7-14.2 28.5 0 58.8 3.3 58.7-15.3-.2-19.8-27.4-55.9-10.7-65.1 15.1-9.3 41.1-5.5 58.3.1 3.9 1.3 9 3.2 12.2 4.7.9 24.2 10.8 55.9 19.2 63.3 9.4 3.3 18.8 6.8 27.7 10.5-13.8-18.8-21-47.8-13.5-49.6l44.1 64.5c12.1 6.9 22.6 14.7 30.7 23.4 51 55.2 43.3 113.6 11.6 134.1 9.6-6.7 13.6-17.4 12.6-28.6-1-10.3-5.8-19.9-13.4-26.9-17.3-16.5-48.6-13.9-65 3.6-22 23.4-19.5 58.4 8.5 77.9 3.7 2.6 7.7 4.8 11.9 6.5 29.3 12 67.2-.4 86.6-31.6 4.2-6.9 7.8-14.2 10.6-21.8 19.5-50.1 17-117.4 2.2-169.1z" fill="#5499af"/><path d="m276.5 169.3c-19.9-1.9-52.8 12.7-52.5 29.8.1 4.6-3 6.6-7 4.4-16.5-8.9-.8-46.6 31.8-44.8 9.4 3.4 18.7 6.8 27.7 10.6z" fill="#334a5a"/><path d="m286.3 142.1c7 10.9 13.7 24.4 20.8 42.1-9.9-5.6-20.1-10.6-30.7-14.9-20.6-28.2-26.5-79.3 9.9-27.2z" fill="#fe9b19"/><path d="m158.9 90.6c7.9-4.8 20.7-6.8 36.1-4.9.4 0 .8.1 1.2.2.6.1 1.1.2 1.7.2 2.3.3 4.7.8 7.1 1.3.5.1 1.1.2 1.6.4.8.2 1.6.4 2.4.6.5.1 1 .3 1.5.4 1.6.4 3.1.9 4.7 1.4.7.2 1.4.4 2.1.7.7.2 1.4.5 2.1.7 2.2.7 4.3 1.6 6.5 2.4.7.3 1.3.6 2 .8.5.2 1 .4 1.5.7.9 24.2 10.8 55.9 19.2 63.3-29.8-10.4-60.9-18.8-85.8-26.9-6.8-17.2-15.1-35.2-3.9-41.3z" fill="#fe9b19"/><path d="m187.1 7.5c1.6.8 2.3 2.5 2.3 4.8 0 10.5-15.4 33-29.1 33.4 4.3 11.1-8.5 30.3-25.6 19.2.3 12.3-10.4 16.1-19.9 14 2.1 10.4 8.9 24.4 19.4 42.4-9.3-4.2-39.5-8.3-64.9-16.6-59-19.5-67-36.4-68.5-53.8 25-21.4 47.4-40.3 87.1-36.1 30.8-13.5 75.3-19.8 99.2-7.3z" fill="#38798f"/><path d="m66.8 20.7c-12.4 0-22.5 10.1-22.5 22.5s10.1 22.4 22.5 22.4 22.4-10.1 22.4-22.5c0-12.3-10-22.4-22.4-22.4z" fill="#fad86e"/><path d="m167.4 53.8c4.3 12-9.9 32.2-27.8 19.9 0 13.1-15.8 15.5-23.4 10.2l-1.2-5c9.5 2.1 20.1-1.8 19.8-14 17 11.1 29.8-8.1 25.6-19.2 13.7-.4 29.1-22.9 29.1-33.4 1.6-.6 3.2-1.1 4.8-1.6 2.7 1.9 3.3 4.9 3.2 8.1-.1 11.3-15.5 35-30.1 35z" fill="#334a5a"/><path d="m134.3 122c-.1 0-.2 0-.3-.1-4.3-2-13.5-3.9-24.1-6.3-12.1-2.6-27.2-5.9-40.7-10.4-61.1-20-67.7-37.7-69.2-54.2 0-.2.1-.5.3-.6 24.3-20.9 47.2-40.6 87.6-36.3.4 0 .7.4.7.8s-.4.7-.8.7c-39.7-4.2-62.3 15.1-86.3 35.7 1.5 15.9 8.4 33 68.1 52.6 13.5 4.4 28.5 7.7 40.6 10.3 11.1 2.4 19.9 4.3 24.4 6.4.4.2.5.6.4 1-.2.2-.4.4-.7.4z"/><path d="m119.8 80.2c-1.7 0-3.4-.2-5.1-.6-5.6-1.2-10.3-4.3-12.9-8.4-.2-.3-.1-.8.2-1s.8-.1 1 .2c2.4 3.8 6.8 6.6 12 7.7 5.7 1.3 11.1.3 14.7-2.6 2.9-2.4 4.4-6.1 4.3-10.6 0-.4.3-.8.7-.8.2 0 .3 0 .4.1 8.9 5.8 15.5 2.5 18.5 0 5.5-4.5 8.1-12.5 5.9-18.3-.1-.4 0-.8.4-1h.2c12.7-.3 28.3-22.1 28.3-32.6 0-2.1-.6-3.5-1.9-4.1-24.3-12.7-69-5.7-98.7 7.4-.4.2-.8 0-1-.4-.1-.4 0-.8.4-1 30-13.2 75.3-20.3 100-7.3 1.2.6 2.7 2.1 2.7 5.4 0 11-15.3 32.7-28.8 34.1 1.8 6.2-1 14.4-6.7 19-5.5 4.4-12.4 4.7-19.2.8 0 4-1.8 7.9-4.9 10.5-2.8 2.4-6.6 3.6-10.5 3.5z"/><path d="m162.9 132.2c-.1 0-.2-.1-.2-.2-.5-1.2-1-2.4-1.5-3.6-6.4-15.8-13-32.2-2.5-38 14.8-9.1 40.8-5.7 58.5.1 4.2 1.3 8.2 2.9 12.2 4.7.1.1.2.2.1.3s-.2.2-.3.1c-4-1.8-8.1-3.3-12.2-4.7-17.6-5.7-43.4-9.2-58.1-.1-10.2 5.6-3.6 21.7 2.7 37.3.5 1.2 1 2.4 1.5 3.6.1.3 0 .4-.2.5.1-.1.1-.1 0 0z"/><path d="m78.5 193.5c-1.8-.1-3.6-.7-5.1-1.7-8.9-5.6-13.1-14.5-10.7-22.8 3.4-12 19.4-19.1 42.6-19.1 23.6 0 34.3-1.8 36.8-6.3 2.2-3.9-1.6-10.3-6.8-19.1l-1.4-2.3c-.1-.2-.2-.3-.3-.5-11.5-19.8-17.6-33-19.5-42.7-.1-.4.2-.8.6-.9s.8.2.9.6c1.9 9.5 7.9 22.5 19.3 42.1l1.6 2.8c5.5 9.3 9.5 16 6.8 20.6-2.9 5.1-13.6 7.1-38.1 7.1-22.5 0-37.9 6.7-41.1 18-2.2 7.6 1.8 15.9 10 21.1 2.6 1.6 4.8 2 6.2 1s1.8-3.2 1.1-6.1c-.7-2.7 0-5.5 1.7-7.6 3.9-4.9 13.5-7.6 27.7-7.6 3.8 0 7.6.1 11.3.1 18.8.3 36.5.5 43.5-6.4 2.2-2.2 3.3-5.2 3.1-8.2-.1-6.7-3.3-15.3-6.6-23.5-.2-.4 0-.8.4-1s.8 0 1 .4c3.3 8.4 6.6 17.1 6.7 24.1.2 3.5-1.1 6.8-3.6 9.3-7.4 7.4-25.5 7.1-44.6 6.8-3.7-.1-7.5-.1-11.3-.1-17.3 0-24 3.8-26.5 7-1.5 1.8-2 4.1-1.4 6.3.8 3.5.2 6.3-1.7 7.6-.7.7-1.6 1-2.6 1z"/><path d="m220 205.2c-1.2 0-2.4-.4-3.4-1-6.2-3.4-8.6-11-6-19.9 3.8-13.4 17.4-26.5 36.3-26.3-8.4-9.6-17.3-39.8-18.2-62.5-.4-10.9.8-24.8 9.1-28.8 7.1-3.4 19.3 1.1 33.5 12.4 13.9 11 28.1 27 38.7 43.8.2.3.2.8-.2 1-.3.2-.8.2-1-.2 0 0 0 0 0-.1-22.4-35.3-56.6-62.3-70.4-55.6-5.9 2.8-8.8 12.6-8.2 27.3.9 23.6 10.5 55.3 19 62.8.3.3.3.7.1 1.1-.2.2-.4.3-.6.3-19.1-1.1-32.9 11.9-36.7 25.2-2.3 8.2-.3 15.2 5.3 18.2 1.7.9 3.1 1 4.2.4 1.1-.7 1.7-2.1 1.7-4.1-.1-5 2.6-10.2 7.8-15 10.4-9.6 29.8-16.5 44-15.7-11.5-16.5-17.4-39.7-13.9-47.2.5-1.5 1.9-2.5 3.4-2.6 4.8-.3 12.4 7.4 22.5 23.1 8.4 13.3 15.4 27.5 20.9 42.2.2.4 0 .8-.4 1s-.8 0-1-.4c-5.4-14.7-12.4-28.7-20.7-41.9-13.4-20.6-19.2-22.5-21.1-22.4-1 .1-1.9.8-2.2 1.8-3.3 7.2 3.2 31.2 14.7 46.9.3.3.2.8-.1 1.1-.2.1-.4.2-.6.2-14-1.3-33.9 5.5-44.4 15.2-4.8 4.5-7.3 9.3-7.3 13.8 0 2.5-.8 4.4-2.4 5.4-.8.2-1.6.5-2.4.5z"/><path d="m248.7 159.5c-.1 0-.2 0-.2 0-17.9-6.2-36-11.7-53.5-16.9-11.5-3.4-22.3-6.7-32.3-9.9-.4-.1-.6-.5-.5-.9s.5-.6.9-.5c9.9 3.2 20.8 6.5 32.3 9.9 17.5 5.3 35.6 10.7 53.6 16.9.4.1.6.6.5 1-.2.2-.5.4-.8.4z"/><path d="m307.1 185c-.1 0-.3 0-.4-.1-9.9-5.6-20.1-10.6-30.6-14.9-.4-.2-.6-.6-.4-1s.6-.6 1-.4c10.6 4.3 20.8 9.3 30.7 14.9.4.2.5.7.3 1-.1.3-.3.5-.6.5z"/><path d="m276.4 169.6h-.1c-5.2-2.2-10.7-4.4-16.6-6.5-3.6-1.3-7.3-2.7-11.2-4-.1 0-.2-.2-.2-.3s.2-.2.3-.2c3.9 1.3 7.6 2.7 11.2 4 5.8 2.2 11.4 4.4 16.6 6.5.1.1.2.2.1.3.1.1 0 .2-.1.2z"/><path d="m80.6 193c-.1 0-.3 0-.4-.1-4.7-2.7-7.8-7.4-8.4-12.8-.2-3.1.7-5.8 2.5-7.2.3-.3.8-.2 1.1.1s.2.8-.1 1.1c-1.4 1.1-2.2 3.3-1.9 5.9.5 4.9 3.3 9.2 7.6 11.6.4.2.5.7.3 1-.2.2-.5.4-.7.4z"/><path d="m74.1 169.3c2.3 0 4.1 1.8 4.1 4.1s-1.8 4.1-4.1 4.1-4.1-1.8-4.1-4.1c0-2.3 1.8-4.1 4.1-4.1z" fill="#fe9b19"/><path d="m74.1 178.3c-2.7 0-4.8-2.2-4.8-4.9 0-2.6 2.2-4.8 4.8-4.8 1.3 0 2.5.5 3.5 1.4 1.9 1.9 1.9 5 0 6.9-.9.9-2.2 1.4-3.5 1.4zm0-8.2c-1.9 0-3.4 1.5-3.3 3.4 0 1.9 1.5 3.4 3.4 3.3 1.9 0 3.4-1.5 3.3-3.4 0-1.9-1.6-3.4-3.4-3.3z"/><path d="m221.7 204.5c-.1 0-.2 0-.3-.1-3.2-1.6-5.8-5.8-6.2-10.1-.4-3.7.8-6.8 3.4-8.7.3-.3.8-.2 1.1.1s.2.8-.1 1.1c-2.8 2.2-3 5.5-2.8 7.4.4 3.8 2.6 7.6 5.3 8.9.4.2.5.6.3 1-.1.3-.4.4-.7.4z"/><path d="m219.4 182.1c2.3 0 4.1 1.8 4.1 4.1s-1.8 4.1-4.1 4.1-4.1-1.8-4.1-4.1c-.1-2.3 1.8-4.1 4.1-4.1z" fill="#fe9b19"/><path d="m219.4 191.1c-2.7 0-4.8-2.2-4.8-4.9 0-2.6 2.2-4.8 4.8-4.8 2.7 0 4.9 2.1 5 4.8 0 2.7-2.1 4.9-4.8 5-.1-.1-.2-.1-.2-.1zm0-8.2c-1.9 0-3.4 1.5-3.3 3.4 0 1.9 1.5 3.4 3.4 3.3.9 0 1.7-.4 2.4-1 1.3-1.3 1.3-3.4 0-4.8-.8-.6-1.6-.9-2.5-.9z"/><path d="m401.2 320.9c-2.8 7.6-6.4 14.9-10.6 21.8 8.7-17.2 13.2-38.5 15.9-60.2 10.6-83.2-34.2-202.2-100.3-259.8 50.5 26 81.5 75.4 96.8 129 8.2 28.8 12.1 58.6 11.8 88.5-.2 30.1-5 58.3-13.6 80.7z" fill="#334a5a"/><path d="m346.7 284.5c.7.5 1.3 1.1 1.9 1.7-28.5-7.9-49.7.3-62.2 24-9.7 18.3-6.4 41.4 5.7 57.5-3.8-2.6-7.2-5.7-10.3-9.2-6.1-6.8-10.3-15.1-12.1-24.1-1.8-9.3-.7-18.8 3-27.5 2.6-6.3 6.3-12.2 10.9-17.2 11.3-12.1 30.3-17.1 45.1-13.7 6.6 1.5 12.7 4.4 18 8.5z" fill="#f46a3d"/><path d="m348.6 287c-.4 0-.7-.3-.7-.7 0-.4.3-.7.8-.7.4 0 .7.3.7.8-.1.2-.4.6-.8.6z"/><path d="m292.1 368c-.1 0-.2 0-.2-.1-12.8-16.9-15.1-40.1-5.8-57.7 6.3-11.9 14.8-19.9 25.3-24s23-4.1 37.3-.2c.1 0 .2.2.2.3s-.2.2-.3.2c-14.1-3.9-26.6-3.9-36.9.1-10.4 4-18.8 12-25 23.8-9.3 17.5-7 40.5 5.7 57.2.1.1.1.3 0 .3-.2.1-.2.1-.3.1z"/><path d="m390.6 342.9c-.1 0-.2-.1-.3-.2 0-.1 0-.1.1-.2 7.5-14.8 12.5-33.9 15.9-60.1 5.2-40.4-2.4-89.9-21.4-139.4-19.1-49.8-47.1-92.5-78.8-120.2-.1-.1-.1-.2 0-.4.1-.1.2-.1.4 0 31.8 27.8 59.8 70.5 78.9 120.4 19 49.5 26.6 99.1 21.4 139.6-3.4 26.3-8.4 45.5-16 60.3 0 .1-.1.2-.2.2z"/><path d="m338.9 319.5c.3 2.7-.1 5.5-1 8.1 1.4-14.3-17.6-17.6-23.9-5.1-4.7 9.3 4.2 21 16.4 22.3 9.4.9 16.8-1.5 22.3-5.8-1.1 1-2.2 1.9-3.4 2.7-8.7 5.6-22.8 7.6-33.8 4.1-7.6-2.4-16.5-10-16.4-21.6-1.1-20.5 19.2-28 31.3-19.5 4.3 2.9 7.5 7.8 8.5 14.8z" fill="#ffd14a"/><path d="m334.4 345.2c-1.3 0-2.6-.1-4-.2-6.7-.6-12.6-4.4-16-10.2-2.3-3.8-2.5-8.4-.6-12.4 2.9-6 9.7-9.1 16.2-7.4 4.4 1.3 8.9 5.2 8.1 12.6 0 .1-.1.2-.3.2s-.2-.1-.2-.3c.7-7-3.6-10.8-7.8-12.1-6.2-1.8-12.9 1.2-15.6 7.1-1.8 3.8-1.6 8.3.6 11.9 3.3 5.7 9.1 9.4 15.6 10 8.7.9 16.1-1.1 22.1-5.7.1-.1.3-.1.4 0s.1.3 0 .4c-5.3 4.1-11.9 6.3-18.5 6.1z"/><path d="m327.5 348.3c-4.1 0-8.2-.6-12.2-1.8-8.2-2.6-17-10.8-17-22.3-.5-9.3 3.3-17 10.6-21 6.9-3.9 15.4-3.5 21.9.9 4.8 3.3 7.8 8.6 8.8 15.3.3 2.9-.1 5.8-1 8.5-1.2 3.7-3.5 7-6.6 9.5-.3.3-.8.2-1.1-.1s-.2-.8.1-1.1c2.8-2.3 4.9-5.3 6.1-8.8.9-2.5 1.2-5.1 1-7.8-.9-6.2-3.7-11.2-8.1-14.3-6.1-4.1-14-4.5-20.3-.8-6.7 3.7-10.3 10.9-9.8 19.7 0 10.9 8.2 18.5 15.9 20.9 10.4 3.4 24.4 1.7 33.2-4 .3-.2.8-.1 1 .2s.1.8-.2 1c-6 3.9-14.3 6-22.3 6z"/><path d="m327.3 379.5c-6.9 0-13.8-1.1-20.4-3.4-1-.3-2-.7-3.1-1.2 0 0 0 0-.1 0-4.2-1.7-8.3-4-12-6.6 0 0-.1 0-.1-.1-3.8-2.7-7.3-5.7-10.4-9.2-6.2-6.9-10.5-15.3-12.3-24.4-1.8-9.4-.7-19.1 3.1-27.9 2.6-6.4 6.4-12.3 11.1-17.4 11.1-11.8 29.9-17.5 45.8-13.9 8 1.8 15.1 5.4 20.1 10.2.1 0 .1.1.1.1 7.7 7.2 12.5 16.9 13.6 27.3.7 6.3-.5 12.6-3.3 18.3 7.2-8.7 11.9-19.2 13.6-30.4 2.1-12.7.8-26.3-3.9-40.6-4.5-13.4-11.1-26-19.6-37.4-3.8-5.2-7.9-10.2-12.3-14.9-7.5-8.2-17.8-16-30.5-23.3-.4-.2-.5-.7-.3-1 .2-.4.7-.5 1-.3h.1c12.8 7.4 23.1 15.3 30.8 23.5 4.4 4.8 8.6 9.8 12.4 15 8.6 11.5 15.3 24.2 19.8 37.8 4.7 14.4 6 28.3 3.9 41.3-2.2 14.8-9.6 28.3-20.8 38.2-1.2 1.1-2.5 2.1-3.9 3-.4.2-.8.1-1-.2s-.1-.8.2-1c1.2-.8 2.2-1.7 3.3-2.7 6.7-6.3 9.9-15.3 9.1-25.3-1-10.1-5.7-19.4-13.1-26.3 0 0-.1 0-.1-.1-4.8-4.6-11.8-8.2-19.5-9.9-15.2-3.5-33.8 2.2-44.4 13.5-4.6 5-8.3 10.7-10.8 17-3.7 8.5-4.7 17.9-3 27 1.8 8.8 5.9 17 11.9 23.7 3 3.4 6.4 6.4 10.2 9 0 0 .1 0 .1.1 3.6 2.5 7.5 4.7 11.6 6.3h.1c1.2.5 2.2.9 3.1 1.2 29.2 10.2 64.7-3.8 82.5-32.5 0 0 0 0 0-.1 4.2-6.8 7.7-14.1 10.5-21.6v-.1c8.6-22.5 13.3-50.3 13.6-80.4.3-29.8-3.6-59.6-11.8-88.3-8.1-28.3-19.9-53.4-35.1-74.7-16.8-23.5-37.5-41.6-61.3-53.9-5-2.6-10.2-4.9-15.4-7-28.7-11.2-57.3-13.8-84.9-7.8-3.8.8-7.5 1.8-11.2 2.9-1.8.6-3.3 1.1-4.7 1.5-.4.1-.8-.1-1-.5-.1-.4.1-.8.5-1 1.4-.5 2.9-1 4.8-1.6 3.7-1.1 7.5-2.1 11.3-3 27.9-5.4 56.8-2.8 85.8 8.5 5.3 2.1 10.5 4.4 15.6 7 24.1 12.4 44.9 30.7 61.9 54.4 15.3 21.4 27.2 46.6 35.3 75.1 8.2 28.9 12.1 58.7 11.8 88.7-.3 30.3-5.1 58.3-13.7 81v.1c-2.8 7.6-6.4 14.9-10.7 21.8v.1c-14.2 22.8-39.3 36.4-63.9 36.4z"/><path d="m59.7 49.3c-11-6.6-7.9-22 2.4-27.3 1.5-.3 3.1-.5 4.6-.5 3.3 0 6.5.7 9.5 2.2-.2.1-.5.1-.7 0-17.4-5.7-27.1 15.9-14.5 23.5 8.4 5 19.5-.9 16.7-10.4-2.4-8-11.2-6.5-12.5-2.3-.7 1.8.2 3.8 2 4.5.7.3 1.4.3 2.1.1 1.9-.4 1.9-3.2.1-2.6-.7.2-1.4-.2-1.6-.8-.6-1.9 2.8-2.4 4.3-.9 2 2 1.1 6-2.3 6.7-8 1.8-10.9-10.6-.8-12.8 4.9-1 9.5 2 11.1 7.3 3.5 11.7-9.9 19.6-20.4 13.3z"/><path d="m66.8 65.6c-12.4 0-22.4-10-22.4-22.4s10-22.4 22.4-22.4c7.7 0 14.8 3.9 18.9 10.4 0 0 0 .1.1.1 6.6 10.5 3.4 24.3-7.1 30.9-3.6 2.2-7.7 3.4-11.9 3.4zm0-43.3c-11.6 0-20.9 9.4-20.9 20.9 0 11.6 9.4 20.9 20.9 20.9 11.6 0 20.9-9.4 20.9-20.9 0-3.9-1.1-7.7-3.1-11 0 0 0-.1-.1-.1-3.8-6.1-10.5-9.8-17.7-9.8z"/><path d="m54.4 48.8c4.3 1.8 10.3 8.8 19.6 4.2 4.5-3 6.4 1.8 1.2 6.3-4.8 4.1-14.4 3.2-19.8-1.5-3.9-3.4-4.5-10.5-1-9z" fill="#fcecb9"/></svg>