<svg height="255.791" viewBox="0 0 445.39 255.791" width="445.39" xmlns="http://www.w3.org/2000/svg"><path d="m171.862 121.74s61.121-1.011 124.23 62.1 99.6 65.348 109.243 64.873c-37.59 10.32-110.6-4.644-153.419-59.467-44.255-56.665-80.054-53.445-80.054-53.445z" fill="#fff"/><path d="m380.089 252.266a162.219 162.219 0 0 1 -49.661-8.385c-22.387-7.36-54.251-22.759-78.907-54.33-43.542-55.752-79.259-53.289-79.615-53.254l-.544.048v-15.1l.492-.008c.142 0 15.624-.169 38.613 7.408 21.191 6.984 53.309 22.166 85.978 54.835 60.294 60.294 96.227 65.342 108.866 64.728l4.55-.225-4.393 1.206a96.794 96.794 0 0 1 -25.379 3.077zm-207.353-116.991c5.909 0 39.543 2.4 79.574 53.66 24.5 31.373 56.175 46.679 78.431 54 24.979 8.211 50.939 10.479 70.483 6.269-15.541-.768-50.5-10.02-105.486-65.009-59.251-59.25-117.438-61.843-123.376-61.946v13.034c.108-.007.238-.008.374-.008z" fill="#1d2445"/><path d="m265.358 225.967c-11.41 20.47-64.57 40.78-67.03-4.07-.65-3.94-1.16-7.18-1.55-9.83 5.5-.54 8.82-6.26 10.81-12.14a62.272 62.272 0 0 0 -12.63-4.24 43.558 43.558 0 0 0 -7.46-14.57c-4.68-5.85-10.315-8.966-23.667-11.058-28.031-4.392-111.531-1.859-147.983-50.172-35.189-46.64-2.2-89.253 22.506-104.572 30.57 17.91 177.114 117.352 177.114 117.352l36.25 27.22s25.04 45.6 13.64 66.08z" fill="#fff"/><path d="m223.142 249.277a30.044 30.044 0 0 1 -6.754-.729c-7.9-1.824-17.533-7.923-18.558-26.623-.639-3.852-1.147-7.07-1.546-9.786l-.076-.518.522-.052c4.3-.422 7.744-4.249 10.238-11.377a61.993 61.993 0 0 0 -12.12-4.017l-.284-.064-.084-.279a43.357 43.357 0 0 0 -7.372-14.4c-4.282-5.351-9.272-8.669-23.354-10.875-4.88-.765-11.512-1.325-19.192-1.973-36.988-3.12-98.9-8.344-129.113-48.393-12.965-17.191-17.812-35.145-14.405-53.38 4.513-24.164 22.778-43.072 37.046-51.921l.256-.159.261.153c30.234 17.716 175.677 116.375 177.142 117.369l36.356 27.3.052.094a186.84 186.84 0 0 1 11.129 25.437c6.465 18.666 7.309 32.5 2.509 41.127-6.432 11.54-26.202 23.066-42.653 23.066zm-25.794-36.777c.387 2.6.869 5.656 1.474 9.317.791 14.364 6.94 23.253 17.791 25.757 16.934 3.908 41.124-8.961 48.309-21.849 10.891-19.568-12.333-63.171-13.591-65.5l-36.162-27.155c-1.443-.981-146.031-99.062-176.807-117.17-14.062 8.808-31.908 27.4-36.336 51.1-3.352 17.946 1.433 35.641 14.222 52.592 29.946 39.691 91.576 44.891 128.4 48 7.7.649 14.347 1.21 19.262 1.98 12.652 1.983 18.928 4.923 23.981 11.239a44.236 44.236 0 0 1 7.463 14.46 62.613 62.613 0 0 1 12.448 4.21l.406.19-.144.424c-2.549 7.516-6.151 11.688-10.716 12.405z" fill="#1d2445"/><path d="m207.588 199.927c-1.99 5.88-5.31 11.6-10.81 12.14-2.52-16.98-.39-9.93-.39-9.93a38.989 38.989 0 0 0 -1.43-6.45 62.272 62.272 0 0 1 12.63 4.24z" fill="#fff"/><path d="m196.354 212.611-.069-.471c-1.723-11.6-1.311-11.8-.717-11.937-.216-1.107-.559-2.617-1.088-4.371l-.248-.821.837.189a62.73 62.73 0 0 1 12.731 4.274l.406.19-.144.424c-2.642 7.806-6.422 12-11.234 12.477zm-.286-10.361c.08 1.34.359 4 1.134 9.259 4.082-.648 7.365-4.452 9.766-11.317a61.523 61.523 0 0 0 -11.29-3.825 37.5 37.5 0 0 1 1.207 5.718z" fill="#1d2445"/><path d="m287.414 135.8s-84.395-125.493-168.525-133.2-71.031 114.978-2.081 114.978 104.033 12.88 132.353 60.022c26.476-19.876 38.253-41.8 38.253-41.8z" fill="#1d2445"/><path d="m207.8 199.474a62.671 62.671 0 0 0 -12.731-4.274c-18.146-4.1-47.951-3.45-86.891 22.9a94.112 94.112 0 0 1 -26.827 12.624c-19.042 5.447-32.031 5.44-39.712-.024-4.7-3.343-7.3-8.842-7.712-16.344-1.334-23.982 14.55-34.961 28.557-37.076l1.84-.278-1.731-.682a18.8 18.8 0 0 0 -8.232-1.32l-.685.037.05 1.077-.529.026c-.38.016-.753.057-1.13.1l-.248.03c-.032 0-.068 0-.151.011a.95.95 0 0 1 -.962-.66l-.126-.4-.417.055a17.486 17.486 0 0 0 -4.662 1.317l-.455.2.192.457a1.908 1.908 0 0 0 .107.207.963.963 0 0 1 -.378 1.242c-.648.4-1.169.746-1.637 1.1a.976.976 0 0 1 -1.209-.063 3.528 3.528 0 0 1 -.379-.389l-.311-.369-.38.3a27.789 27.789 0 0 0 -3.565 3.371l-.326.419.421.328a1.418 1.418 0 0 1 .251 1.959c-.156.19-.3.389-.45.587l-.232.312a1.41 1.41 0 0 1 -1.881.4.762.762 0 0 0 -.292-.178l-.358-.119-.213.312c-.8 1.176-1.577 2.455-2.376 3.911l-.25.455.587.3a1.125 1.125 0 0 0 .113.063 1.409 1.409 0 0 1 .555 1.831c-.114.219-.219.436-.317.655a1.389 1.389 0 0 1 -.857.734 1.41 1.41 0 0 1 -1.147-.147l-.343-.2-.136.142h-.118l-.134.291c-.775 1.695-1.486 3.409-2.113 5.094l-.17.458.74.295a1.5 1.5 0 0 1 .8 1.873c-.153.425-.3.861-.446 1.306a1.4 1.4 0 0 1 -1.752.877l-.776-.194-.142.448c-.627 1.974-1.228 4.062-1.787 6.2l-.125.477.609.167a1.577 1.577 0 0 1 1.192 1.892l-.421 1.851a1.69 1.69 0 0 1 -1.555 1.31 1.785 1.785 0 0 1 -.521-.064l-.5-.132-.169.78c-.111.51-.22 1.01-.312 1.513a18.757 18.757 0 0 0 -.34 5.168l.029.409 1.3.162a1.719 1.719 0 0 1 1.46 1.374 18.983 18.983 0 0 0 .646 2.258 1.617 1.617 0 0 1 -.76 1.964l-.939.525.213.426a18.782 18.782 0 0 0 3.668 5.024l.335.279.344-.256a2.291 2.291 0 0 1 2.813.106 17.046 17.046 0 0 0 1.443 1.061 1.488 1.488 0 0 1 .691 1.033 1.431 1.431 0 0 1 -.37 1.136l-.515.515.665.3a23.361 23.361 0 0 0 6.282 1.761l.416.057.127-.4a4.961 4.961 0 0 1 .239-.531c.039-.081.077-.16.113-.237 4.919 1.972 10.978 2.761 17.527 2.761 12.431 0 26.627-2.843 38.141-5.842 12.763-3.323 24.249-9.216 35.356-14.915 19.892-10.205 38.679-19.844 60.114-11.294a11.294 11.294 0 0 0 5.294.863c4.812-.473 8.591-4.67 11.234-12.478l.144-.423z" fill="#1c2445"/><path d="m194.958 195.687c-17.36-3.92-47.24-3.74-86.5 22.83a94.75 94.75 0 0 1 -26.97 12.69c-19.57 5.6-46.6 9.46-48.06-16.82-1.52-27.31 18.6-35.89 29.33-37.51a20.025 20.025 0 0 1 6.95 4.59 18.442 18.442 0 0 1 6.17 12.43 18.767 18.767 0 0 1 -10.77 18.43 17.6 17.6 0 0 1 -4.45 1.46h-.04a15.687 15.687 0 0 1 -2.58.32h-.02l-.03-.01a12.141 12.141 0 0 1 -11.39-11.52v-.036a6.814 6.814 0 0 1 2.445-5.514c3.125-2.481 8.232-5.631 11.366-4.33 1.03.44 2.29 1.52 2.42 4.25.21 4.32-.64 6.86-2.58 7.71a3.344 3.344 0 0 1 -1.21.29c-2.4.12-4.79-2.13-5.3-2.64l2.07-2.08c1.03 1.02 2.68 2.01 3.25 1.75.05-.02 1.06-.51.84-4.89-.02-.54-.14-1.48-.62-1.68-1.2-.49-7.935 1.919-7.68 5.8a7.566 7.566 0 0 0 .86 3.13 10.132 10.132 0 0 0 .55.89 7.465 7.465 0 0 0 2.31 2.09 10.411 10.411 0 0 0 4.57 1.06 9.013 9.013 0 0 0 8.57-9.44 1.641 1.641 0 0 0 -.02-.23h.01c0-.02-.01-.05-.01-.07a9.122 9.122 0 0 0 -.62-2.62 19.882 19.882 0 0 0 -1.25-3.32c-2.88-5.93-7.78-6.92-12.8-5.89-14.93 4.31-14.35 21.89-12.77 31.65v.03a3.571 3.571 0 0 0 2.64 2.8c9.19 2.44 28.04 2.96 59.64-15.05.02-.01 29.14-17.48 41.6-21.72 15.23-5.17 30.6-5.02 42.62-3.4a43.558 43.558 0 0 1 7.459 14.57z" fill="#fff"/><g fill="#1d2445"><path d="m57.269 235.8c-6.827 0-12.2-1.427-16.21-4.282-4.96-3.529-7.695-9.283-8.13-17.1-.675-12.142 2.766-21.826 10.23-28.782a37.741 37.741 0 0 1 19.525-9.25l.132-.021.125.049a20.654 20.654 0 0 1 7.124 4.706 18.924 18.924 0 0 1 6.313 12.743 19.381 19.381 0 0 1 -11.058 18.917 18.1 18.1 0 0 1 -4.57 1.5l-.078.009a15.924 15.924 0 0 1 -2.611.319h-.093l-.108-.029a12.59 12.59 0 0 1 -11.76-11.979 7.284 7.284 0 0 1 2.632-5.965c2.318-1.842 8.116-5.957 11.869-4.4 1.169.5 2.587 1.718 2.728 4.689.222 4.565-.72 7.245-2.879 8.191a3.831 3.831 0 0 1 -1.386.331c-2.544.158-4.991-2.1-5.678-2.785l-.352-.353 2.772-2.787.355.351a5.453 5.453 0 0 0 2.7 1.645c-.01-.006.723-.671.535-4.405-.029-.792-.218-1.2-.312-1.244-.436-.171-2.828.355-4.84 1.806-1.036.747-2.251 1.96-2.15 3.5a7.051 7.051 0 0 0 .8 2.924 8.924 8.924 0 0 0 .518.838 7.009 7.009 0 0 0 2.156 1.951 10.1 10.1 0 0 0 4.291.991 8.513 8.513 0 0 0 8.1-8.916 1.244 1.244 0 0 0 -.016-.18l-.088-.575h.033a8.714 8.714 0 0 0 -.535-2 19.849 19.849 0 0 0 -1.236-3.288c-2.382-4.907-6.5-6.8-12.249-5.618-14.468 4.173-13.968 21.262-12.376 31.076l.007.11a3.064 3.064 0 0 0 2.269 2.317c19.552 5.2 45.522-7.17 59.263-15 3.055-1.824 29.815-17.719 41.686-21.759 12.87-4.369 27.286-5.523 42.848-3.422l.2.026.125.156a44.394 44.394 0 0 1 7.548 14.739l.247.821-.836-.189c-17.948-4.05-47.465-3.4-86.109 22.756a95.137 95.137 0 0 1 -27.112 12.756c-9.58 2.741-17.669 4.112-24.359 4.112zm5.431-58.409c-5.42.847-30.472 6.434-28.774 36.969.417 7.5 3.012 13 7.712 16.343 7.68 5.465 20.673 5.472 39.712.023a94.1 94.1 0 0 0 26.828-12.626c38.344-25.949 67.826-26.975 86.048-23.089a43.1 43.1 0 0 0 -6.993-13.428c-15.334-2.04-29.527-.9-42.193 3.405-11.774 4.007-38.451 19.852-41.454 21.646-13.934 7.944-40.186 20.416-60.076 15.136a4.07 4.07 0 0 1 -3-3.2l-.006-.113c-1.636-10.061-2.114-27.73 13.131-32.13 6.282-1.29 10.779.779 13.388 6.151a20.384 20.384 0 0 1 1.281 3.405 9.411 9.411 0 0 1 .637 2.712l.013.164a1.737 1.737 0 0 1 .01.178 9.511 9.511 0 0 1 -9.046 9.939 10.657 10.657 0 0 1 -4.849-1.128 8.015 8.015 0 0 1 -2.463-2.232 10.591 10.591 0 0 1 -.578-.933 8.051 8.051 0 0 1 -.924-3.343c-.1-1.581.782-3.095 2.563-4.377 1.918-1.381 4.787-2.332 5.806-1.919.716.3.9 1.32.93 2.124.218 4.33-.731 5.2-1.149 5.371-.866.392-2.487-.7-3.426-1.517l-1.373 1.378c.831.751 2.738 2.213 4.558 2.151a2.86 2.86 0 0 0 1.031-.247c1.714-.751 2.482-3.183 2.286-7.23-.094-1.97-.807-3.253-2.117-3.814-2.662-1.11-7.354 1.477-10.861 4.262a6.333 6.333 0 0 0 -2.255 5.1 11.636 11.636 0 0 0 10.922 11.078l.07.006a14.892 14.892 0 0 0 2.424-.306l.106-.011a17.128 17.128 0 0 0 4.272-1.41 18.376 18.376 0 0 0 10.489-17.944 17.944 17.944 0 0 0 -6-12.094 19.733 19.733 0 0 0 -6.68-4.45z"/><path d="m198.6 235.367c-.74.09-1.49.17-2.23.25l.24 2.53-9.7.94-.24-2.49c-3.84.35-7.39.61-10.37.74v2.64h-9.74v-3.05c-3.63-.55-9.13-1.45-9.42-1.52l-1.33 2.22c-2.99-.82-6.38-1.82-10.03-3.02l1.19-2.08c-.6-.19-8.26-2.86-8.97-3.14l-1.27 1.97c-2.91-1.14-5.89-2.4-8.89-3.79a2.282 2.282 0 0 0 -.95-3.13c-1.4-.72-3.18-1.65-4.56-2.38a2.608 2.608 0 0 0 -1.24-.3 2.68 2.68 0 0 0 -2.25 1.23c-2.69-1.49-5.35-3.12-7.92-4.86a2.8 2.8 0 0 0 -.61-3.94c-.91-.66-1.84-1.34-2.6-1.91a2.811 2.811 0 0 0 -3.49.11l-.46.38a71.353 71.353 0 0 1 -6.22-5.81l.34-.36a2.53 2.53 0 0 0 .03-3.4c-.83-.93-1.77-2.01-2.53-2.89a2.54 2.54 0 0 0 -3.26-.48l-.26.17a95.515 95.515 0 0 1 -4.87-8.78l.33-.13a2.525 2.525 0 0 0 1.43-3.1c-.48-1.49-1.04-3.32-1.48-4.76a2.51 2.51 0 0 0 -2.41-1.78 2.64 2.64 0 0 0 -.78.12 46.9 46.9 0 0 1 -.64-11.48l2.735.22a75.88 75.88 0 0 0 2.005 8.73c.29.83.61 1.64.93 2.44.1.27.22.53.34.8.3.71.62 1.4.95 2.08.15.35.32.69.5 1.02.34.68.7 1.34 1.07 2 .17.33.36.65.56.97.34.59.7 1.17 1.07 1.74.07.12.15.24.23.36.15.25.31.49.49.74.2.31.41.61.63.92.2.3.42.6.64.9s.44.59.66.89.45.58.68.87c.46.58.92 1.15 1.4 1.7.46.56.95 1.11 1.45 1.65.92 1.02 1.89 2.01 2.88 2.96.07.07.14.13.21.2.52.5 1.04.98 1.57 1.45.47.43.94.84 1.42 1.24.63.54 1.26 1.06 1.9 1.57.51.41 1.03.81 1.55 1.2.06.04.11.09.17.13.24.18.47.35.71.52.43.33.87.64 1.32.95s.89.62 1.34.92.9.6 1.35.89c.43.28.85.55 1.28.82.51.31 1.02.62 1.53.92.76.45 1.53.89 2.3 1.32 1.07.59 2.14 1.16 3.21 1.7.47.24.94.47 1.41.7.77.37 1.54.73 2.3 1.08.41.19.82.37 1.23.55 1.75.77 3.51 1.48 5.24 2.14.82.3 1.63.6 2.44.88.04.01.08.03.12.04q2.565.9 5.04 1.62c.42.12.83.23 1.23.35.71.2 1.42.39 2.12.57 2.35.62 4.6 1.12 6.71 1.49.12.03.24.05.35.07s.23.04.32.06c.66.12 1.01.17 1.01.17.52.09 1.04.17 1.54.24.44.06.87.12 1.29.17a1.1 1.1 0 0 0 .18.02c.48.06.95.12 1.41.16s.9.09 1.33.12h.06c11.1.84 26.27-2.63 41.11-7.63a35.2 35.2 0 0 0 -.63 4.19 31.739 31.739 0 0 0 -.16 3.17 27.717 27.717 0 0 0 1.84 10.14c-.47.05-.94.11-1.41.16z"/><path d="m341.293 160.329a4.184 4.184 0 0 1 -.638-.665 41.326 41.326 0 0 1 -3.182 2.885l.542.706-2.887 2.573-.728-.828-7.157 5.639-19.77-19.717s34.6 6.6 19.2-31.465a4.885 4.885 0 0 0 -5.645-2.93c-5.657 1.335-7.84 5.111-8.371 9.022a8.1 8.1 0 0 0 6.971 9.175 2.7 2.7 0 0 0 1.467-.271 4.506 4.506 0 0 0 1.493-1.2 5.357 5.357 0 0 0 .587-5.845c-.2-.4-.385-.757-.492-.964a4.335 4.335 0 0 0 -.218-.382 5.336 5.336 0 0 0 -1.743-1.918l-.095-.022c-.949.038-1.846 1.449-2.517 3.969a3.2 3.2 0 0 0 -.052 1.449.525.525 0 0 0 .936.18 4.81 4.81 0 0 0 .575-1.238l.9.253 1.015.286a4.143 4.143 0 0 1 -1.7 2.432 2.012 2.012 0 0 1 -1.314.088c-.049-.018-.979-.341-1.027-.364-1.6-.746-1.521-2.691-1.251-3.612.809-3.038 1.916-4.59 3.367-4.731a4 4 0 0 1 1.528.042c1.677.545 2.059 1.381 2.868 2.453.044.059.083.116.127.175s.113.15.168.227a23.572 23.572 0 0 1 1.4 2.124c.142.284.272.576.394.875 2.1 5.217.586 10.74-3.388 12.344a6.614 6.614 0 0 1 -5.07-.144l-3.152-1.1-2.563-.96a10.406 10.406 0 0 1 -5.843-5.346 11.693 11.693 0 0 1 -.618-1.658 20.67 20.67 0 0 1 .327-2.9.914.914 0 0 0 -.751-1.065 13.833 13.833 0 0 1 .521-2.93l.284.106a.907.907 0 0 0 1.168-.526c.233-.61.5-1.245.805-1.889a.912.912 0 0 0 -.388-1.191l-.359-.195a26.274 26.274 0 0 1 1.573-2.583l.2.113a1.094 1.094 0 0 0 1.43-.309c.318-.449.658-.894 1.024-1.343a1.1 1.1 0 0 0 -.225-1.591c.7-.813 1.422-1.593 2.154-2.332l.276.216a1.093 1.093 0 0 0 1.4-.039c.476-.422.976-.843 1.5-1.254a1.1 1.1 0 0 0 .06-1.676l-.15-.136c.146-.129.291-.253.436-.377a15.369 15.369 0 0 1 3.328-2.169l.258.462a1.1 1.1 0 0 0 1.427.45 16.321 16.321 0 0 1 2-.782 1.093 1.093 0 0 0 .766-1.087l-.017-.419a15.289 15.289 0 0 1 4.017-.077 1.23 1.23 0 0 0 .963 1.276 9.281 9.281 0 0 1 1.487.491 1.211 1.211 0 0 0 1.522-.556l.061-.113a14.029 14.029 0 0 1 3.137 2.122l-.186.17a1.209 1.209 0 0 0 -.091 1.7c.334.373.659.772.976 1.192a1.225 1.225 0 0 0 1.662.284l.509-.344a19.828 19.828 0 0 1 2.352 4.17l-.528.244a1.22 1.22 0 0 0 -.6 1.606q.516 1.157.983 2.413a1.233 1.233 0 0 0 1.627.711l.233-.1c.437 1.5.88 3.187 1.335 5.117v.005l-.077.018a1.221 1.221 0 0 0 -.888 1.483c.154.616.305 1.24.447 1.875a1.232 1.232 0 0 0 1.437.923h.035q.36 1.689.743 3.591a1.228 1.228 0 0 0 -1.031 1.425c.091.522.176 1.046.264 1.576a1.3 1.3 0 0 0 1.474 1.088c.205 1.432.341 2.774.411 4.039a1.412 1.412 0 0 0 -1.135 1.428c.016.569.018 1.128 0 1.681a1.212 1.212 0 0 0 1.076 1.234 20.262 20.262 0 0 1 -.918 4.62.979.979 0 0 0 -1.094.7c-.214.811-.464 1.59-.744 2.349a.652.652 0 0 0 .381.837 8.116 8.116 0 0 1 -3.004 4.731z"/><ellipse cx="111.402" cy="59.281" rx="57.125" ry="93.774" transform="matrix(.18542651 -.98265813 .98265813 .18542651 32.492 157.759)"/></g><path d="m128.667 118.575a151.172 151.172 0 0 1 -27.951-2.669c-51.081-9.639-87.845-42.883-81.954-74.1 2.863-15.172 15.22-27.593 34.794-34.976 19.491-7.354 43.827-8.83 68.531-4.174 51.081 9.639 87.845 42.882 81.954 74.106-2.863 15.171-15.22 27.592-34.794 34.975-12.031 4.536-25.91 6.837-40.58 6.838zm-34.535-117.588c-14.548 0-28.3 2.278-40.222 6.775-19.237 7.253-31.369 19.408-34.165 34.224-5.789 30.681 30.618 63.4 81.157 72.938 24.525 4.628 48.672 3.165 67.992-4.123 19.236-7.254 31.368-19.409 34.164-34.225 5.789-30.682-30.618-63.4-81.157-72.938a150.254 150.254 0 0 0 -27.769-2.651z" fill="#1c2445"/><ellipse cx="99.536" cy="77.913" fill="#fff" rx="4.685" ry="2.906"/><ellipse cx="90.293" cy="97.531" fill="#fff" rx="4.71" ry="2.921"/><ellipse cx="77.15" cy="76.979" fill="#fff" rx="9.821" ry="6.092"/><path d="m193.818 239.977c-1.93-6.26-2.21-14.29-2.07-20.31" fill="none"/><path d="m443.271 225c.339.09.659.17.939.26-.01.03-.02.06-.03.1a26.309 26.309 0 0 1 -4.23 7.72 3.449 3.449 0 0 1 -.3.38l-.03-.01-.1-.03a5.287 5.287 0 0 0 -5.611 1.27 13.707 13.707 0 0 1 -1.4 1.35 3.5 3.5 0 0 0 -1.321 2.95 3.353 3.353 0 0 0 .831 2.03v.01a41.623 41.623 0 0 1 -9.781 4.45c-.27-.47-1.06-1.26-1.29-1.67-.01 0-.01-.01-.02-.01-.05.02-.11.05-.159.07a36.806 36.806 0 0 1 -10.891 4.33c-1.14.25-2.3.47-3.48.63-20.149 2.89-46.849-7.4-79.48-30.66q-3.435-2.445-6.96-5.09l-.179-.14c-3.841-2.91-13.691-10.48-23.68-7.1a18.38 18.38 0 0 0 -8.971 6.47c-17.42 24.315-41.97 40.56-57.859 42.67a.325.325 0 0 1 -.131.02 54.654 54.654 0 0 1 -5.48.66 14.57 14.57 0 0 1 -1.97.13c-.179 0-.37 0-.57-.01-3.91.08-9.569-1.19-12.45-1.92a17.846 17.846 0 0 1 -3.81-1.42 26.045 26.045 0 0 1 -9.69-8.59 25.861 25.861 0 0 1 -4.58-7.61 24.108 24.108 0 0 1 -.809-2.43 28.556 28.556 0 0 1 -1.03-7.71c0-1.02.05-2.07.159-3.17.04-.46.091-.93.16-1.41.11-.9.27-1.83.471-2.78a50.492 50.492 0 0 1 2.839-9.18 78.588 78.588 0 0 1 4.85-9.75c.36-.62.73-1.24 1.11-1.87a1.4 1.4 0 0 1 .1-.16c1.29-2.1 2.73-4.28 4.341-6.52 16.609-23.26 28.23-20.52 33.679-16.81a14.015 14.015 0 0 1 1.551 1.22l1.719-1.32 4.021 5.27-1.881 1.43a20.552 20.552 0 0 1 1.54 4.93l2.02-.07.1 2.75.149 3.87-1.94.07a33.176 33.176 0 0 1 -.909 5.59l2.089.75-2.22 6.24-2.01-.72c-.35.77-.71 1.54-1.109 2.31a36.678 36.678 0 0 1 -1.911 3.28c-.069.11-.159.23-.24.34l1.631 1.22-3.971 5.31-1.94-1.46c-12.42 12.17-22.56.76-22.56.76a32.551 32.551 0 0 0 2.6-2.33c6.321 6.32 14.68-8.48 16.88-12.72.221-.42.38-.74.471-.92.02-.04.04-.08.06-.13a.082.082 0 0 0 .019-.04c.24-.51.45-1.02.631-1.51 2.089-5.56-4.871-10.06-9.031-5.82a63.722 63.722 0 0 0 -6.409 7.81q-2.462 3.45-4.381 6.65h-.01c-5.909 9.86-7.99 17.94-5.919 23.24a9.7 9.7 0 0 0 .409.93.035.035 0 0 0 .01.02 4.506 4.506 0 0 0 3.611 2.32c26.639 2.39 38.5-16.37 41.77-33.54.329-1.7.569-3.38.73-5.03a42.234 42.234 0 0 0 -1.828-15.45c-.26-.77-1.849-3.52-2.13-4.23.35-10.8-6.94-19.49-20.789-28.99l39.25-34.59a190.607 190.607 0 0 1 20.889 23.92c.02.01.02.02.03.03 1.52 1.59 50.46 52.7 65.93 63.21 35.11 22.31 40.53 20.12 45.29 17.84.07-.08 3.17-2.2 6.391-4.77a11.687 11.687 0 0 0 4.339-9.53c-.42-12.47-2.72-26.9-20.47-31.28-8.03-1.02-15.73-.69-20.04.41a3.871 3.871 0 0 0 -2.589 5.21 29.307 29.307 0 0 0 2.439 4.58c7.75 12.13 18.63 15.86 20.19 15.45 1.26-.33 2.3-.75 2.47-2.69-.31-2.72-3.04-10.76-6.08-12.89a1.564 1.564 0 0 0 -1.89-.22c-.47.25-.73.49-.77.72-.19 1.1 1.28 3.53 2.381 4.72l-3.081 2.7c-.84-.91-5.609-4.07-4.9-8.61.45-2.84.349-3.74 3.139-5.71 2.91-2.05 6.53-1.31 9.5.96 5.54 4.23 11.071 21.12 10.16 25.32-.38 1.76-5.39 5.67-9.259 7.76-2.511 1.36-3.671 1.41-7.011 1.41-8.23 0-18.52-5.27-28.19-20.43-6.46-10.15-7.48-18.7-2.99-25.42 6.1-9.13 20.49-10.26 31.341-9.65a2.321 2.321 0 0 0 1.419-1.72 34.9 34.9 0 0 1 7.861.76 1.918 1.918 0 0 0 .589 2.03c.28.26 2.941 1.05 3.62 1.44 1.16.63 3.091-.49 3.94-1.34a43.448 43.448 0 0 1 6.821 3.71l-.031.04a2.561 2.561 0 0 0 .22 3.97c.45.34.9.71 1.351 1.06a3.587 3.587 0 0 0 4.71-.28h.01c1.649 1.44 3.24 2.98 4.77 4.6-.02.23-.041.34-.071.58a2.613 2.613 0 0 0 -.57 3.86c.24.27.48.54.72.83a3.518 3.518 0 0 0 4.441.56c.129-.07.26-.16.369-.23 1.77 2.17 3.411 4.4 5 6.69l-.48.28a2.675 2.675 0 0 0 -1.149 3.81c.409.63.8 1.26 1.2 1.87a3.409 3.409 0 0 0 4.3 1.04l.5-.23c1.73 2.82 3.319 5.64 4.8 8.42l-.17.09a3.163 3.163 0 0 0 -1.839 4.27c.389.8.789 1.59 1.159 2.37a3.657 3.657 0 0 0 3.88 1.83 4.361 4.361 0 0 0 1.11-.31q.585 1.245 1.14 2.46a24.053 24.053 0 0 1 2.02 7.2c-.51.16-.99.31-1.47.44a3.424 3.424 0 0 0 -2.619 3.78 3.368 3.368 0 0 1 -.211 1.93 3.116 3.116 0 0 0 2.181 4.26z" fill="#1d2445"/><path d="m245.928 175.557s-1.34-2.05-5.99-4.92" fill="none"/><path d="m116.808 218.218v-.427l-.184.388.184-.388v-.573l.245.058-.214.451z" fill="#1d2445"/><path d="m276.362 90.046a24.616 24.616 0 0 1 -10.89 20.452 26.965 26.965 0 0 0 -33.646-35.05 24.661 24.661 0 0 1 44.536 14.6z" fill="#fff"/><path d="m264.458 111.785.546-1.461a26.464 26.464 0 0 0 -33.022-34.4l-1.483.484.925-1.257a25.159 25.159 0 1 1 34.328 35.763zm-24.229-38.172a27.466 27.466 0 0 1 26.223 35.564 24.157 24.157 0 1 0 -33.261-34.653 27.526 27.526 0 0 1 7.038-.911z" fill="#1d2445"/><path d="m267.383 101.7a27.07 27.07 0 0 1 -24.545 26.954c-.829.078-1.675.122-2.531.122a27.076 27.076 0 0 1 -17.992-47.3h.009a27.063 27.063 0 0 1 45.059 20.224z" fill="#fff"/><path d="m240.307 129.273a27.576 27.576 0 0 1 -18.324-48.173l.151-.127a27.57 27.57 0 1 1 20.749 48.178c-.873.08-1.74.122-2.576.122zm-17.8-47.3a26.577 26.577 0 0 0 17.8 46.3c.805 0 1.641-.04 2.484-.12a26.573 26.573 0 1 0 -20.134-46.308z" fill="#1d2445"/><circle cx="245.108" cy="90.619" fill="#fff" r="14.248"/><path d="m245.108 105.366a14.748 14.748 0 1 1 14.747-14.747 14.764 14.764 0 0 1 -14.747 14.747zm0-28.5a13.748 13.748 0 1 0 13.747 13.748 13.763 13.763 0 0 0 -13.747-13.743z" fill="#1d2445"/><path d="m254.478 90.17-1.487 5.584c-2.886-4.934-7.037-8.026-11.679-8.06a10.38 10.38 0 0 0 -2.474.286l1.265-4.737a10.753 10.753 0 0 1 3.111-.448c4.417.032 8.404 2.851 11.264 7.375z" fill="#1d2445"/><path d="m266.528 111.887-39.25 34.59" fill="none"/><path d="m156.726 152.772a33.612 33.612 0 0 0 -.953-5.439 26.721 26.721 0 0 0 -5.309-10.5 27.4 27.4 0 0 0 -9.218-7.113 36.964 36.964 0 0 0 -10.074-3.1 55.636 55.636 0 0 0 -9.489-.708 50.1 50.1 0 0 0 -5.071.184c-.924.105-1.688.221-2.484.381a29.079 29.079 0 0 0 -4.211.92c-.239.06-.463.133-.7.209l-.158.052a32.632 32.632 0 0 0 -13.175 8.47c-.826.87-1.623 1.782-2.368 2.71l-.079.139c-9.337 25.073 5.475 40.536 12.276 46.023l2.225 1.794-1.483-2.443c-8.869-14.6-6.2-27.258-5.167-30.788.119-.4.29-.909.3-.953a25.134 25.134 0 0 1 2.025-3.594 24.871 24.871 0 0 1 2.723-3.39 12.016 12.016 0 0 1 1.42-1.243 19.862 19.862 0 0 1 11.667-3.957c.889-.02 1.642-.035 2-.035a35.758 35.758 0 0 1 7.077.71 23.07 23.07 0 0 1 6.006 2.061 11.909 11.909 0 0 1 3.988 3.312 11.471 11.471 0 0 1 2.019 4.616 19.334 19.334 0 0 1 .39 2.915 25.541 25.541 0 0 1 -.039 3.125 13.191 13.191 0 0 1 -1.283 4.984 7.182 7.182 0 0 1 -2.654 2.877 10.346 10.346 0 0 1 -4.452 1.342 15.47 15.47 0 0 1 -5.447-.533 13.13 13.13 0 0 1 -4.549-2.223 6.148 6.148 0 0 1 -1.213-1.22c-.174-.4-.782-3.718-.409-4.579a4.518 4.518 0 0 1 .95-1.355 4.344 4.344 0 0 1 1.306-.856 2.62 2.62 0 0 1 1.161-.21 5.089 5.089 0 0 1 1.527.433 6.059 6.059 0 0 1 2.123 1.795 24.934 24.934 0 0 1 1.335 2.74l.191.688 5.627-.449.014-.447c0-.158.12-3.885.06-4.787a13.8 13.8 0 0 0 -1.516-5.8 11.1 11.1 0 0 0 -5.193-4.843 14.218 14.218 0 0 0 -7.178-1.2c-.321.031-.631.072-.948.123a16.667 16.667 0 0 0 -10.733 6.512 17.433 17.433 0 0 0 -3 6.189c-1.616 5.835.907 12.415 1.47 13.469a20.913 20.913 0 0 0 4.091 5.3 26.683 26.683 0 0 0 10.208 5.889 30.37 30.37 0 0 0 11.294 1.423 25.843 25.843 0 0 0 11.634-3.519 22.972 22.972 0 0 0 8.72-9.422 28.235 28.235 0 0 0 2.841-11.341 40.757 40.757 0 0 0 -.115-5.338z" fill="#1c2445"/><path d="m170.958 207.387c-21.35 2.98-53.25-3.6-64.89-22.71l-.041-.07c-6.906-5.568-21.31-20.779-12.119-45.461q-1.1 1.376-2.04 2.761a36.322 36.322 0 0 0 -3.29 6.05s-8.97 20.21 5.54 44.01c6.79 11.14 19.13 20.63 34.75 26.73a95.557 95.557 0 0 0 34.1 6.62 71.264 71.264 0 0 0 9.93-.67 139.515 139.515 0 0 0 16.17-3.13c.11-.9.27-1.83.47-2.78a50.5 50.5 0 0 1 2.84-9.18 78.588 78.588 0 0 1 4.85-9.75c.36-.62.73-1.24 1.11-1.87a1.4 1.4 0 0 1 .1-.16c-4.49.823-13.96 7.723-27.48 9.61z" fill="#fff"/><path d="m162.968 225.817a96.645 96.645 0 0 1 -34.281-6.654c-15.722-6.14-28.15-15.705-35-26.936-14.479-23.749-5.661-44.268-5.57-44.473a36.941 36.941 0 0 1 3.332-6.125c.645-.952 1.339-1.893 2.064-2.8l1.94-2.416-1.081 2.9c-9.114 24.47 5.331 39.549 11.963 44.9l.116.132c6.7 11 19.225 16.664 28.561 19.489a88.224 88.224 0 0 0 35.872 3.054c8.716-1.218 15.722-4.531 20.837-6.95a32.239 32.239 0 0 1 6.622-2.657l1.322-.241-.9 1.153c-.378.626-.747 1.244-1.1 1.861a78.539 78.539 0 0 0 -4.82 9.688 50.292 50.292 0 0 0 -2.812 9.09c-.2.968-.36 1.89-.465 2.742l-.041.336-.327.09a140.312 140.312 0 0 1 -16.229 3.141 71.65 71.65 0 0 1 -10.003.676zm-70.554-83.817-.131.192a36.026 36.026 0 0 0 -3.244 5.965c-.092.207-8.69 20.271 5.507 43.555 6.732 11.045 18.986 20.464 34.5 26.524a95.625 95.625 0 0 0 33.918 6.586 70.75 70.75 0 0 0 9.86-.665 140.884 140.884 0 0 0 15.787-3.032c.106-.784.252-1.619.434-2.486a51.284 51.284 0 0 1 2.867-9.266 79.47 79.47 0 0 1 4.88-9.812q.284-.489.577-.98a51.947 51.947 0 0 0 -5.22 2.27c-5.173 2.447-12.259 5.8-21.125 7.037a88.018 88.018 0 0 1 -36.3-3.088c-9.5-2.876-22.263-8.656-29.086-19.858-6.452-5.208-20.338-19.642-13.224-42.942z" fill="#1d2445"/><path d="m54.343 179.709c4.66-1.468 11.139-1.947 17.394 4.6l-3.255-4.149-6.382-3.643-6.351 1.628s-1.907 1.722-1.406 1.564z" fill="#1d2445"/></svg>